<svg xmlns="http://www.w3.org/2000/svg" viewBox="0 0 800 800"><defs><style>.cls-1{fill:#fff9de;}.cls-2{fill:#7dc144;}.cls-3{fill:#39932c;}.cls-4{fill:#1c6610;}.cls-12,.cls-5{fill:#fff;}.cls-6{opacity:0.4;}.cls-7{fill:#ec1c24;}.cls-8{fill:none;}.cls-14,.cls-9{fill:#e2000f;}.cls-10{fill:#0057a4;}.cls-10,.cls-11,.cls-12,.cls-13,.cls-14{fill-rule:evenodd;}.cls-11{fill:#1a1a18;}.cls-13{fill:#1754a1;}</style></defs><title>future</title><g id="Background"><rect class="cls-1" width="800" height="800"/><rect class="cls-2" y="344" width="800" height="456"/><rect class="cls-3" y="487" width="800" height="313"/><rect class="cls-4" y="640" width="800" height="160"/><rect class="cls-5" width="800" height="344"/></g><g id="Objets"><path class="cls-2" d="M109,344.94h-2c-8-.06-37.63.14-45,4-8.51,4.52,33,7,72.93,5.54s57.46,0,81.45-1,70.42-4.52,49.93-6-40.48-5.55-51.43-5.55-36-.65-44.24,1.19S141.41,336.91,109,344.94Z"/><path class="cls-2" d="M133.82,332.27s1.5,9.18-12.91,10.3-15.75,3.65-15.75,3.65,15.75-1.51,23.93-1.14,10.83-2.68,17.62-2.12,17.86,4.42,27.33,3.84,15.37-3.25,21.44-1.92,1-2.31-7.57-2.1-16.33.38-20.32-4.79S133.82,332.27,133.82,332.27Z"/><path class="cls-2" d="M199.53,225.27s-12.68,16.16-46.29,17.81l-2.79,9.36s6.82-5.19,14.7-6.57,30.79-11.06,36.27-20.34Z"/><path class="cls-2" d="M195,221.75s.08,7.46-5,12.47-.32.15-.17.17,3.07-1.23,3.07-1.23S196.8,224.78,195,221.75Z"/><path class="cls-2" d="M147.84,193.19s6.85,1.91-5.3,56.22-8,93.69-8,93.69h36.06s-16.83-34-14.8-67.7,29.09-66,34.68-90l-9.62-1S167.73,220.34,159.13,229c0,0,4.54-30.58,1-44.32S147.84,193.19,147.84,193.19Z"/><g class="cls-6"><path class="cls-2" d="M151.46,197.47c1.7,6.11-2.84,30.77-4.92,41.88S139,281.21,139,281.21s5.69-26.38,18.2-37.86,28.48-48.93,28.48-48.93-3.57-.3-8.4-.55c-4.54,11.29-12.34,29.34-18.1,35.13,0,0,3-20.21,2.23-35.17C155.38,194.2,150.85,195.19,151.46,197.47Z"/></g><path class="cls-2" d="M89.43,239.48s9.6,24.46,50.09,39V291s-6.46-8.91-15.59-13.52-33.64-25-36.92-38.38Z"/><path class="cls-2" d="M109.88,225.4s-6.8,21.76,3.64,40.91.91.64.42.64-8-6.26-8-6.26S102,232.7,109.88,225.4Z"/><path class="cls-2" d="M131.76,225.63a7.12,7.12,0,0,0,.35-2.15,6.76,6.76,0,0,0-6.73-6.79,6.69,6.69,0,0,0-1.77.26,13.05,13.05,0,0,0-8.17-6.28,9.54,9.54,0,0,0,.24-2,8.15,8.15,0,0,0-8.13-8.18,4.93,4.93,0,0,0-.66,0,13,13,0,0,0-24.81,4.72c-.1,0-.22,0-.36,0a6.71,6.71,0,0,0-6.66,6.43,9.52,9.52,0,0,0-12.62,6.87,13.09,13.09,0,0,0,1.15,26.12,12.69,12.69,0,0,0,5.2-1.11,10.85,10.85,0,0,0,10.3,7.57,10.67,10.67,0,0,0,5.45-1.52A24.94,24.94,0,0,0,114.11,244,13,13,0,0,0,134,232.94,13.18,13.18,0,0,0,131.76,225.63Z"/><path class="cls-2" d="M130.43,225.5a6,6,0,0,0,.32-2,6.41,6.41,0,0,0-8.22-6.32,12.53,12.53,0,0,0-7.89-6.08,8.23,8.23,0,0,0,.25-1.93,7.91,7.91,0,0,0-7.84-7.92,4.31,4.31,0,0,0-.64,0,12.54,12.54,0,0,0-24,4.55c-.09,0-.18,0-.3,0A6.5,6.5,0,0,0,75.62,212a8.74,8.74,0,0,0-3.2-.59,9.23,9.23,0,0,0-9,7.2,12.63,12.63,0,0,0,1.11,25.21,12.86,12.86,0,0,0,5-1,10.42,10.42,0,0,0,9.9,7.29,10.31,10.31,0,0,0,5.34-1.46,23.6,23.6,0,0,0,10.71,2.56,24,24,0,0,0,17.79-7.9,12.73,12.73,0,0,0,6.67,1.93,12.67,12.67,0,0,0,10.41-19.72Z"/><path class="cls-2" d="M127.58,223.81a5.7,5.7,0,0,0,.32-1.87,5.94,5.94,0,0,0-5.92-6,5.7,5.7,0,0,0-1.59.22,11.28,11.28,0,0,0-7.15-5.52,7.53,7.53,0,0,0,.22-1.77,7.19,7.19,0,0,0-7.16-7.23c-.21,0-.36,0-.56,0a11.39,11.39,0,0,0-21.81,4.16l-.2,0a6,6,0,0,0-6,5.69A7.77,7.77,0,0,0,74.8,211a8.4,8.4,0,0,0-8.16,6.54,11.49,11.49,0,1,0,5.6,22,9.53,9.53,0,0,0,9.06,6.65,9,9,0,0,0,4.8-1.35,21.38,21.38,0,0,0,9.73,2.33A22,22,0,0,0,112.09,240a11.24,11.24,0,0,0,6.07,1.74,11.49,11.49,0,0,0,9.42-17.92Z"/><path class="cls-2" d="M255.74,133.12a16.33,16.33,0,0,0,.89-5.36,17,17,0,0,0-16.89-17,16.66,16.66,0,0,0-4.54.65,32.79,32.79,0,0,0-20.45-15.85,19.81,19.81,0,0,0,.63-5A20.49,20.49,0,0,0,195,70a11.47,11.47,0,0,0-1.66.1A32.52,32.52,0,0,0,131,81.9c-.28,0-.56-.05-.87-.05A16.94,16.94,0,0,0,113.29,98,23.41,23.41,0,0,0,105,96.5a24,24,0,0,0-23.36,18.77,32.85,32.85,0,0,0,2.92,65.55A32.18,32.18,0,0,0,97.65,178a27.12,27.12,0,0,0,25.82,19,26.83,26.83,0,0,0,13.74-3.82,62.37,62.37,0,0,0,74.15-13.93,32.4,32.4,0,0,0,17.36,5.07,32.88,32.88,0,0,0,27-51.25Z"/><path class="cls-2" d="M252.4,132.87a16.28,16.28,0,0,0-19.86-21,31.51,31.51,0,0,0-19.79-15.28,18.49,18.49,0,0,0,.65-4.85,19.84,19.84,0,0,0-19.76-19.89c-.52,0-1,0-1.58.1a31.42,31.42,0,0,0-60.18,11.43l-.84,0A16.31,16.31,0,0,0,114.78,99,23,23,0,0,0,84.2,115.59,31.73,31.73,0,0,0,87,178.9a30.84,30.84,0,0,0,12.62-2.65,26.23,26.23,0,0,0,25,18.33,25.85,25.85,0,0,0,13.3-3.65,60.38,60.38,0,0,0,71.65-13.47,31.12,31.12,0,0,0,16.78,4.9,31.77,31.77,0,0,0,26.08-49.49Z"/><path class="cls-2" d="M245.28,128.6a14.31,14.31,0,0,0,.79-4.7,14.93,14.93,0,0,0-14.85-15,13.78,13.78,0,0,0-4,.58,28.71,28.71,0,0,0-18-13.92,18,18,0,0,0-17.44-22.5c-.45,0-1,0-1.41.06a28.61,28.61,0,0,0-54.78,10.43,5.78,5.78,0,0,0-.73,0,14.87,14.87,0,0,0-14.83,14.2,21,21,0,0,0-27.81,15.12A28.88,28.88,0,1,0,106.3,168.1,23.86,23.86,0,0,0,129,184.8a23.32,23.32,0,0,0,12.08-3.36,55,55,0,0,0,65.28-12.25,28.18,28.18,0,0,0,15.22,4.46,28.9,28.9,0,0,0,23.73-45.05Z"/><path class="cls-2" d="M226.74,219.78a4.28,4.28,0,0,0,.19-1.31,4.1,4.1,0,0,0-4.07-4.11,5.31,5.31,0,0,0-1.08.14,7.93,7.93,0,0,0-5-3.82,5.22,5.22,0,0,0,.17-1.23,5,5,0,0,0-5-5h-.37a7.87,7.87,0,0,0-15.08,2.86h-.15a4.16,4.16,0,0,0-4.18,3.91,6.07,6.07,0,0,0-2-.34,5.8,5.8,0,0,0-5.65,4.53,8,8,0,0,0,.71,15.87,7.59,7.59,0,0,0,3.15-.65,6.6,6.6,0,0,0,6.28,4.59,6.7,6.7,0,0,0,3.32-.89,15,15,0,0,0,6.75,1.57A15.18,15.18,0,0,0,216,231a7.86,7.86,0,0,0,4.19,1.23,8,8,0,0,0,7.92-8A7.85,7.85,0,0,0,226.74,219.78Z"/><path class="cls-2" d="M225.92,219.73a3.32,3.32,0,0,0,.2-1.27,4,4,0,0,0-3.94-4,3.58,3.58,0,0,0-1.07.18,7.53,7.53,0,0,0-4.76-3.73,6.85,6.85,0,0,0,.13-1.16,4.82,4.82,0,0,0-4.77-4.85l-.38,0a7.63,7.63,0,0,0-14.6,2.78h-.19a4,4,0,0,0-3.95,3.79,4.9,4.9,0,0,0-1.94-.38,5.63,5.63,0,0,0-5.48,4.38,7.7,7.7,0,0,0,.69,15.37,7.84,7.84,0,0,0,3.06-.65,6.36,6.36,0,0,0,6.06,4.43,6,6,0,0,0,3.18-.87,14.65,14.65,0,0,0,17.4-3.28,7.29,7.29,0,0,0,4.05,1.21,7.67,7.67,0,0,0,7.63-7.69A7.55,7.55,0,0,0,225.92,219.73Z"/><path class="cls-2" d="M224.24,218.72a6,6,0,0,0,.17-1.17,3.63,3.63,0,0,0-3.62-3.64,3.09,3.09,0,0,0-.94.15,7,7,0,0,0-4.38-3.38,4.25,4.25,0,0,0,.15-1.07,4.38,4.38,0,0,0-4.34-4.38,1.38,1.38,0,0,0-.37.05,6.9,6.9,0,0,0-6.34-4.18,7,7,0,0,0-6.93,6.67h-.2a3.64,3.64,0,0,0-3.59,3.46,4.55,4.55,0,0,0-1.75-.34,5.12,5.12,0,0,0-5,4,7,7,0,1,0,3.39,13.38,5.76,5.76,0,0,0,5.5,4,5.65,5.65,0,0,0,2.94-.8,13.65,13.65,0,0,0,5.94,1.38,13.36,13.36,0,0,0,9.87-4.36,6.7,6.7,0,0,0,3.67,1.08,7,7,0,0,0,7-7A7.22,7.22,0,0,0,224.24,218.72Z"/><path class="cls-2" d="M160.15,249.41A72.29,72.29,0,0,0,148,272.6c-4.05,13.52-4.58,41.56-2.28,54s1.76-8.67,7.07-3.56,5.82,14.53,10.37,14C163.16,337.1,144.71,300.15,160.15,249.41Z"/><path class="cls-2" d="M229.61,339.89s-.54,3.27,4.6,3.67,5.63,1.32,5.63,1.32a79.65,79.65,0,0,0-8.53-.43c-2.92.14-3.86-1-6.28-.76s-6.41,1.58-9.77,1.39-5.47-1.16-7.63-.67-.35-.85,2.72-.76,5.8.13,7.21-1.72S229.61,339.89,229.61,339.89Z"/><path class="cls-2" d="M206.19,301.75s4.53,5.75,16.5,6.35l1,3.33a13.81,13.81,0,0,0-5.24-2.36c-2.81-.48-11-3.93-12.94-7.25Z"/><path class="cls-2" d="M207.77,300.46a7,7,0,0,0,1.77,4.48c1.82,1.77.14,0,.11.07s-1.11-.42-1.11-.42S207.17,301.58,207.77,300.46Z"/><path class="cls-2" d="M224.61,290.31s-2.43.71,1.86,20.05,2.88,33.4,2.88,33.4H216.51s6-12.12,5.27-24.14-10.42-23.53-12.38-32.07l3.42-.38s4.69,12.82,7.77,15.93c0,0-1.62-10.93-.34-15.84S224.61,290.31,224.61,290.31Z"/><g class="cls-6"><path class="cls-2" d="M223.32,291.83c-.6,2.19,1,11,1.75,14.94s2.72,14.92,2.72,14.92-2-9.41-6.5-13.48-10.14-17.46-10.14-17.46,1.27-.1,3-.2c1.6,4,4.39,10.46,6.44,12.55a76.53,76.53,0,0,1-.78-12.55C221.93,290.66,223.56,291,223.32,291.83Z"/></g><path class="cls-2" d="M245.43,306.81s-3.43,8.71-17.84,13.91v4.44a17.4,17.4,0,0,1,5.55-4.81c3.23-1.64,12-8.92,13.17-13.65Z"/><path class="cls-2" d="M238.15,301.78s2.42,7.76-1.3,14.62-.33.19-.16.19,2.85-2.2,2.85-2.2S240.94,304.39,238.15,301.78Z"/><path class="cls-2" d="M230.34,301.87a2.08,2.08,0,0,1-.11-.77,2.42,2.42,0,0,1,2.4-2.41,1.75,1.75,0,0,1,.62.1,4.62,4.62,0,0,1,2.93-2.22,2.52,2.52,0,0,1-.1-.74,2.92,2.92,0,0,1,2.92-2.92h.21a4.64,4.64,0,0,1,8.87,1.67h.1a2.4,2.4,0,0,1,2.39,2.29,3.16,3.16,0,0,1,1.17-.18,3.38,3.38,0,0,1,3.33,2.63,4.66,4.66,0,0,1-.43,9.3,4.74,4.74,0,0,1-1.85-.38,3.86,3.86,0,0,1-3.66,2.71,4,4,0,0,1-1.94-.56,8.82,8.82,0,0,1-10.54-2,4.62,4.62,0,0,1-7.08-3.95A4.79,4.79,0,0,1,230.34,301.87Z"/><path class="cls-2" d="M230.81,301.82a2.91,2.91,0,0,1-.1-.72,2.29,2.29,0,0,1,2.92-2.26,4.35,4.35,0,0,1,2.83-2.13,2.65,2.65,0,0,1-.12-.73,2.85,2.85,0,0,1,2.82-2.83,1.13,1.13,0,0,1,.22,0,4.47,4.47,0,0,1,8.56,1.63h.14a2.33,2.33,0,0,1,2.29,2.22,3,3,0,0,1,1.12-.24,3.29,3.29,0,0,1,3.21,2.61,4.49,4.49,0,0,1-.41,9,4.91,4.91,0,0,1-1.78-.35,3.73,3.73,0,0,1-5.43,2.07,8.51,8.51,0,0,1-10.16-1.91,4.64,4.64,0,0,1-2.4.7,4.53,4.53,0,0,1-3.71-7Z"/><path class="cls-2" d="M231.82,301.21a1.91,1.91,0,0,1-.09-.64,2.13,2.13,0,0,1,2.12-2.14,1.73,1.73,0,0,1,.57.09,3.85,3.85,0,0,1,2.54-1.95,2.76,2.76,0,0,1-.11-.66,2.6,2.6,0,0,1,2.55-2.58.65.65,0,0,1,.21,0,4.07,4.07,0,0,1,7.8,1.49h.08a2.09,2.09,0,0,1,2.12,2,3.43,3.43,0,0,1,1-.2,3,3,0,0,1,2.92,2.34,4.13,4.13,0,0,1,3.68,4.12,4.07,4.07,0,0,1-4.06,4.08,4.49,4.49,0,0,1-1.64-.34,3.38,3.38,0,0,1-3.2,2.36,3.24,3.24,0,0,1-1.71-.46,7.93,7.93,0,0,1-3.5.8,7.75,7.75,0,0,1-5.78-2.54,4,4,0,0,1-2.16.63,4.09,4.09,0,0,1-4.09-4.09A4.27,4.27,0,0,1,231.82,301.21Z"/><path class="cls-2" d="M186.14,268.89a5.87,5.87,0,0,1-.33-1.9,6.06,6.06,0,0,1,6.05-6.07,5.62,5.62,0,0,1,1.6.22,11.7,11.7,0,0,1,7.3-5.62,7.85,7.85,0,0,1-.2-1.81,7.29,7.29,0,0,1,7.26-7.32,4.16,4.16,0,0,1,.6,0,11.59,11.59,0,0,1,22.2,4.2h.29a6.08,6.08,0,0,1,6.05,5.77,8,8,0,0,1,2.94-.54,8.54,8.54,0,0,1,8.3,6.66,11.73,11.73,0,0,1-1,23.41,11.34,11.34,0,0,1-4.65-1,9.65,9.65,0,0,1-9.2,6.78,9.41,9.41,0,0,1-4.92-1.37,22,22,0,0,1-10,2.38A22.46,22.46,0,0,1,202,285.37a11.55,11.55,0,0,1-6.16,1.8,11.72,11.72,0,0,1-9.65-18.28Z"/><path class="cls-2" d="M187.34,268.78a5.62,5.62,0,0,1-.29-1.83,5.82,5.82,0,0,1,5.77-5.87,6.25,6.25,0,0,1,1.61.24,11.19,11.19,0,0,1,7-5.45,7.19,7.19,0,0,1-.23-1.72,7,7,0,0,1,7-7.09,2.73,2.73,0,0,1,.57,0,11.19,11.19,0,0,1,21.45,4.09,1.59,1.59,0,0,1,.31-.05,5.84,5.84,0,0,1,5.78,5.58,8.29,8.29,0,0,1,2.87-.51,8.2,8.2,0,0,1,8,6.44,11.32,11.32,0,0,1-1,22.59,11.47,11.47,0,0,1-4.52-1,9.27,9.27,0,0,1-13.63,5.22,21.14,21.14,0,0,1-9.59,2.26,21.44,21.44,0,0,1-15.94-7.06,11.21,11.21,0,0,1-17.22-9.57A11.57,11.57,0,0,1,187.34,268.78Z"/><path class="cls-2" d="M189.87,267.28a6.15,6.15,0,0,1-.27-1.68,5.31,5.31,0,0,1,5.3-5.32,5.41,5.41,0,0,1,1.42.19,10.19,10.19,0,0,1,6.4-5,6.5,6.5,0,0,1-.19-1.58,6.44,6.44,0,0,1,6.41-6.45,2.37,2.37,0,0,1,.53,0A10.17,10.17,0,0,1,229,251.21h.19a5.32,5.32,0,0,1,5.38,5.09,7,7,0,0,1,2.61-.49,7.51,7.51,0,0,1,7.29,5.86,10.3,10.3,0,0,1-.9,20.55,9.68,9.68,0,0,1-4.11-.88,8.48,8.48,0,0,1-8.07,6,8.3,8.3,0,0,1-4.31-1.21,19.67,19.67,0,0,1-8.74,2.06,19.47,19.47,0,0,1-14.51-6.44A10.19,10.19,0,0,1,188.13,273,10.29,10.29,0,0,1,189.87,267.28Z"/><path class="cls-2" d="M196.49,299.8a1.27,1.27,0,0,1-.09-.47,1.47,1.47,0,0,1,1.48-1.47,2.1,2.1,0,0,1,.36,0,2.82,2.82,0,0,1,1.8-1.32,1.51,1.51,0,0,1,0-.47,1.76,1.76,0,0,1,1.74-1.78s.11,0,.14,0a2.8,2.8,0,0,1,5.37,1h.09a1.45,1.45,0,0,1,1.45,1.4,3,3,0,0,1,.73-.13,2.06,2.06,0,0,1,2,1.62,2.82,2.82,0,0,1,2.57,2.8,2.84,2.84,0,0,1-2.81,2.87,3.39,3.39,0,0,1-1.13-.24,2.33,2.33,0,0,1-3.44,1.3,5.29,5.29,0,0,1-2.39.57,5.44,5.44,0,0,1-4-1.76,2.81,2.81,0,0,1-4.3-2.41A2.74,2.74,0,0,1,196.49,299.8Z"/><path class="cls-2" d="M196.76,299.78a3,3,0,0,1-.09-.45,1.44,1.44,0,0,1,1.44-1.44,2.5,2.5,0,0,1,.38.06,2.76,2.76,0,0,1,1.7-1.32,1.46,1.46,0,0,1,0-.41,1.69,1.69,0,0,1,1.7-1.71H202a2.71,2.71,0,0,1,5.19,1h.06a1.45,1.45,0,0,1,1.43,1.36,2,2,0,0,1,.67-.13,2,2,0,0,1,2,1.56,2.75,2.75,0,0,1-.28,5.48,3.13,3.13,0,0,1-1.07-.21,2.25,2.25,0,0,1-2.16,1.56,2.23,2.23,0,0,1-1.15-.32,5.39,5.39,0,0,1-2.35.56,5.3,5.3,0,0,1-3.86-1.71,2.67,2.67,0,0,1-1.43.42,2.74,2.74,0,0,1-2.27-4.27Z"/><path class="cls-2" d="M197.4,299.41a1.07,1.07,0,0,1-.09-.43,1.28,1.28,0,0,1,1.29-1.27,1.18,1.18,0,0,1,.34,0,2.33,2.33,0,0,1,1.56-1.18,1.43,1.43,0,0,1,0-.4,1.58,1.58,0,0,1,1.54-1.58l.12,0a2.54,2.54,0,0,1,2.29-1.48,2.47,2.47,0,0,1,2.44,2.37h.08a1.29,1.29,0,0,1,1.28,1.24,1.59,1.59,0,0,1,.62-.12,1.81,1.81,0,0,1,1.77,1.44,2.46,2.46,0,0,1,2.28,2.45,2.52,2.52,0,0,1-2.49,2.53,2.71,2.71,0,0,1-1-.22,2.05,2.05,0,0,1-1.95,1.44,2.59,2.59,0,0,1-1.09-.28,4.47,4.47,0,0,1-2,.5,4.72,4.72,0,0,1-3.54-1.6,2.25,2.25,0,0,1-1.32.39A2.46,2.46,0,0,1,197,300.8,2.36,2.36,0,0,1,197.4,299.41Z"/><path class="cls-2" d="M220.25,310.36a25.79,25.79,0,0,1,4.3,8.27c1.47,4.81,1.63,14.8.84,19.27s-.65-3.1-2.54-1.29-2.07,5.19-3.7,5C219.15,341.63,225.72,328.43,220.25,310.36Z"/><path class="cls-2" d="M277.89,343.77h-.48c-2,0-9.16,0-10.94,1-2.07,1.1,8,1.71,17.74,1.34s14,0,19.82-.24,17.14-1.1,12.15-1.47S306.33,343,303.66,343s-8.75-.16-10.76.29S285.79,341.81,277.89,343.77Z"/><path class="cls-2" d="M283.94,340.68s.37,2.24-3.14,2.51-3.83.89-3.83.89a57.06,57.06,0,0,1,5.82-.28c2,.09,2.64-.65,4.29-.52s4.35,1.08,6.65.94,3.74-.79,5.22-.47.23-.56-1.84-.51-4,.09-4.95-1.17S283.94,340.68,283.94,340.68Z"/><path class="cls-2" d="M299.93,314.65s-3.08,3.93-11.26,4.33l-.68,2.28a9.53,9.53,0,0,1,3.58-1.6c1.9-.33,7.49-2.69,8.82-5Z"/><path class="cls-2" d="M298.84,313.79a4.68,4.68,0,0,1-1.22,3c-1.23,1.22-.08,0,0,0s.75-.3.75-.3S299.27,314.53,298.84,313.79Z"/><path class="cls-2" d="M287.36,306.84s1.66.47-1.29,13.68a77.47,77.47,0,0,0-1.94,22.8h8.77s-4.09-8.28-3.6-16.47,7.08-16.07,8.44-21.9l-2.34-.24s-3.21,8.74-5.3,10.84c0,0,1.11-7.44.25-10.78S287.36,306.84,287.36,306.84Z"/><g class="cls-6"><path class="cls-2" d="M288.24,307.88c.41,1.49-.69,7.49-1.2,10.19s-1.85,10.19-1.85,10.19,1.39-6.42,4.43-9.21,6.93-11.91,6.93-11.91-.87-.07-2-.13c-1.11,2.74-3,7.14-4.41,8.54a53.35,53.35,0,0,0,.55-8.55C289.19,307.09,288.09,307.33,288.24,307.88Z"/></g><path class="cls-2" d="M273.14,318.1s2.34,6,12.19,9.49v3a12.14,12.14,0,0,0-3.79-3.29c-2.21-1.11-8.19-6.08-9-9.34Z"/><path class="cls-2" d="M278.12,314.68s-1.66,5.29.88,9.95.23.16.11.16-1.95-1.52-1.95-1.52S276.21,316.45,278.12,314.68Z"/><path class="cls-2" d="M283.44,314.73a1.54,1.54,0,0,0,.09-.52,1.65,1.65,0,0,0-1.64-1.65,1.94,1.94,0,0,0-.43.06,3.21,3.21,0,0,0-2-1.53,1.93,1.93,0,0,0,.06-.49,2,2,0,0,0-2-2h-.16a3.15,3.15,0,0,0-6,1.15h-.08a1.63,1.63,0,0,0-1.62,1.56,2.48,2.48,0,0,0-.82-.14,2.31,2.31,0,0,0-2.25,1.82,3.18,3.18,0,0,0,.28,6.35,3,3,0,0,0,1.26-.27,2.64,2.64,0,0,0,2.51,1.84,2.54,2.54,0,0,0,1.32-.37,6.07,6.07,0,0,0,7.2-1.34,3.17,3.17,0,0,0,4.29-4.48Z"/><path class="cls-2" d="M283.12,314.7a1.33,1.33,0,0,0,.08-.49,1.59,1.59,0,0,0-1.58-1.6,1.42,1.42,0,0,0-.42.06,3.08,3.08,0,0,0-1.92-1.48,2.42,2.42,0,0,0,.06-.47,1.93,1.93,0,0,0-1.91-1.93h-.16a3.05,3.05,0,0,0-5.84,1.11h-.07a1.58,1.58,0,0,0-1.58,1.52,2,2,0,0,0-.78-.14,2.26,2.26,0,0,0-2.18,1.75,3.07,3.07,0,0,0,.27,6.13,3.14,3.14,0,0,0,1.23-.25,2.53,2.53,0,0,0,2.41,1.78,2.49,2.49,0,0,0,1.3-.36,5.67,5.67,0,0,0,2.6.62A5.86,5.86,0,0,0,279,319a3.1,3.1,0,0,0,1.62.47,3.06,3.06,0,0,0,3.05-3.07A3.09,3.09,0,0,0,283.12,314.7Z"/><path class="cls-2" d="M282.43,314.29a1.37,1.37,0,0,0,.07-.45,1.44,1.44,0,0,0-1.44-1.45,1.2,1.2,0,0,0-.38.05,2.77,2.77,0,0,0-1.74-1.34,2.1,2.1,0,0,0,.05-.43,1.75,1.75,0,0,0-1.74-1.76h-.14a2.77,2.77,0,0,0-5.3,1h-.05a1.44,1.44,0,0,0-1.46,1.39,1.88,1.88,0,0,0-.72-.13,2,2,0,0,0-2,1.59,2.8,2.8,0,0,0,.25,5.58,3,3,0,0,0,1.11-.23,2.34,2.34,0,0,0,2.21,1.62,2.21,2.21,0,0,0,1.16-.33,5.27,5.27,0,0,0,2.37.56,5.37,5.37,0,0,0,4-1.74,2.69,2.69,0,0,0,1.47.42,2.79,2.79,0,0,0,2.3-4.36Z"/><path class="cls-2" d="M313.61,292.22a3.94,3.94,0,0,0,.22-1.3,4.14,4.14,0,0,0-4.11-4.14,4,4,0,0,0-1.11.16,8,8,0,0,0-5-3.86,5.21,5.21,0,0,0,.15-1.21,5,5,0,0,0-5-5,2.83,2.83,0,0,0-.41,0,7.91,7.91,0,0,0-15.15,2.87h-.21a4.12,4.12,0,0,0-4.1,3.94,5.62,5.62,0,0,0-2-.37,5.85,5.85,0,0,0-5.68,4.56,8,8,0,0,0,.71,15.95,7.69,7.69,0,0,0,3.18-.68,6.6,6.6,0,0,0,6.29,4.63,6.5,6.5,0,0,0,3.34-.93,15.14,15.14,0,0,0,18-3.39A7.85,7.85,0,0,0,307,304.7a8,8,0,0,0,6.57-12.48Z"/><path class="cls-2" d="M312.8,292.17a4.12,4.12,0,0,0,.2-1.27,4,4,0,0,0-4-4,4.19,4.19,0,0,0-1.07.15,7.63,7.63,0,0,0-4.81-3.72,4.54,4.54,0,0,0,.16-1.18,4.82,4.82,0,0,0-4.81-4.83l-.38,0a7.65,7.65,0,0,0-14.65,2.78h-.2a4,4,0,0,0-4,3.8,5.76,5.76,0,0,0-1.95-.36,5.65,5.65,0,0,0-5.49,4.41,7.72,7.72,0,0,0,.68,15.4,7.51,7.51,0,0,0,3.08-.64,6.37,6.37,0,0,0,6.07,4.46,6.24,6.24,0,0,0,3.23-.89A14.71,14.71,0,0,0,302.37,303a7.51,7.51,0,0,0,4.08,1.2,7.73,7.73,0,0,0,6.35-12Z"/><path class="cls-2" d="M311.07,291.13a3.66,3.66,0,0,0-3.43-4.79,3.38,3.38,0,0,0-1,.14,7,7,0,0,0-4.38-3.39,4.75,4.75,0,0,0,.13-1.07,4.38,4.38,0,0,0-4.38-4.4h-.34a7,7,0,0,0-13.33,2.54h-.18a3.63,3.63,0,0,0-3.61,3.46,4.93,4.93,0,0,0-1.77-.33,5.13,5.13,0,0,0-5,4,7,7,0,1,0,3.42,13.44,5.79,5.79,0,0,0,5.51,4.06,5.62,5.62,0,0,0,2.94-.82,13.38,13.38,0,0,0,15.89-3,6.86,6.86,0,0,0,3.7,1.09,7,7,0,0,0,5.78-11Z"/><path class="cls-2" d="M306.55,313.31a1.07,1.07,0,0,0,.05-.32,1,1,0,0,0-1-1,1.09,1.09,0,0,0-.26,0,1.93,1.93,0,0,0-1.21-.93,1.36,1.36,0,0,0,0-.3,1.22,1.22,0,0,0-1.22-1.21h-.08a2,2,0,0,0-1.76-1.14,1.91,1.91,0,0,0-1.91,1.84h0a1,1,0,0,0-1,.95,1.28,1.28,0,0,0-.48-.09,1.42,1.42,0,0,0-1.38,1.11,1.93,1.93,0,0,0,.17,3.86,1.8,1.8,0,0,0,.77-.16,1.61,1.61,0,0,0,1.53,1.12,1.58,1.58,0,0,0,.81-.22,3.6,3.6,0,0,0,1.64.38,3.69,3.69,0,0,0,2.73-1.2,2,2,0,0,0,1,.3,1.94,1.94,0,0,0,1.93-1.95A1.87,1.87,0,0,0,306.55,313.31Z"/><path class="cls-2" d="M306.35,313.3a.81.81,0,0,0,0-.31,1,1,0,0,0-1-1,1.27,1.27,0,0,0-.26,0,1.84,1.84,0,0,0-1.16-.91,1.16,1.16,0,0,0-1.12-1.46h-.1a1.86,1.86,0,0,0-3.55.68h0a1,1,0,0,0-1,.92,1.19,1.19,0,0,0-.47-.09,1.37,1.37,0,0,0-1.33,1.07,1.87,1.87,0,0,0,.17,3.73,2,2,0,0,0,.74-.15,1.54,1.54,0,0,0,1.47,1.07,1.45,1.45,0,0,0,.78-.21,3.53,3.53,0,0,0,4.23-.8,1.78,1.78,0,0,0,1,.3,1.87,1.87,0,0,0,1.86-1.87A1.8,1.8,0,0,0,306.35,313.3Z"/><path class="cls-2" d="M305.94,313.05a.92.92,0,0,0,.05-.28.89.89,0,0,0-.88-.89.79.79,0,0,0-.23,0,1.74,1.74,0,0,0-1.07-.82,1.17,1.17,0,0,0,0-.26,1.07,1.07,0,0,0-1.06-1.07h-.09a1.67,1.67,0,0,0-1.54-1,1.7,1.7,0,0,0-1.69,1.62h-.05a.88.88,0,0,0-.87.84,1.18,1.18,0,0,0-.43-.08,1.23,1.23,0,0,0-1.2,1,1.7,1.7,0,0,0,.15,3.4,1.82,1.82,0,0,0,.67-.14,1.4,1.4,0,0,0,1.34,1,1.37,1.37,0,0,0,.72-.2,3.15,3.15,0,0,0,1.44.34,3.25,3.25,0,0,0,2.4-1.06,1.63,1.63,0,0,0,.89.26,1.7,1.7,0,0,0,1.7-1.7A1.72,1.72,0,0,0,305.94,313.05Z"/><path class="cls-2" d="M290.35,320.52a17.54,17.54,0,0,0-3,5.64c-1,3.29-1.11,10.12-.55,13.15s.43-2.11,1.72-.86,1.42,3.54,2.52,3.41C291.08,341.86,286.59,332.87,290.35,320.52Z"/><path class="cls-2" d="M307.25,342.54s-.13.79,1.12.89,1.37.32,1.37.32a18.2,18.2,0,0,0-2.07-.1c-.72,0-.94-.24-1.53-.19a14.77,14.77,0,0,1-2.38.34,8,8,0,0,0-1.86-.16c-.52.11-.08-.21.67-.19s1.41,0,1.75-.42S307.25,342.54,307.25,342.54Z"/><path class="cls-2" d="M301.55,333.26s1.11,1.39,4,1.54l.24.81a3.46,3.46,0,0,0-1.28-.57c-.68-.12-2.67-1-3.14-1.77Z"/><path class="cls-2" d="M301.94,332.94a1.71,1.71,0,0,0,.43,1.09c.44.43,0,0,0,0l-.27-.1S301.79,333.21,301.94,332.94Z"/><path class="cls-2" d="M306,330.47s-.6.18.45,4.88a28.07,28.07,0,0,1,.7,8.13h-3.13a13.52,13.52,0,0,0,1.29-5.88c-.18-2.91-2.54-5.72-3-7.8l.84-.09a17.45,17.45,0,0,0,1.89,3.87,13.91,13.91,0,0,1-.09-3.85C305.28,328.54,306,330.47,306,330.47Z"/><g class="cls-6"><path class="cls-2" d="M305.72,330.84a16.06,16.06,0,0,0,.43,3.64c.18,1,.66,3.63.66,3.63a7.49,7.49,0,0,0-1.58-3.28c-1.09-1-2.47-4.25-2.47-4.25l.73-.05a12.51,12.51,0,0,0,1.57,3.05,18.61,18.61,0,0,1-.19-3.05C305.38,330.56,305.78,330.65,305.72,330.84Z"/></g><path class="cls-2" d="M311.1,334.49s-.83,2.12-4.34,3.38V339a4.22,4.22,0,0,1,1.35-1.17c.79-.4,2.92-2.17,3.2-3.32Z"/><path class="cls-2" d="M309.33,333.26a5.09,5.09,0,0,1-.31,3.56c-.91,1.66-.09.05,0,.05s.69-.54.69-.54S310,333.9,309.33,333.26Z"/><path class="cls-2" d="M307.43,333.29a.58.58,0,0,1,0-.19.59.59,0,0,1,.59-.59.37.37,0,0,1,.15,0,1.16,1.16,0,0,1,.71-.55.52.52,0,0,1,0-.17.71.71,0,0,1,.71-.72h0a1.11,1.11,0,0,1,1-.67,1.14,1.14,0,0,1,1.13,1.07h0a.58.58,0,0,1,.58.56.88.88,0,0,1,.29,0,.82.82,0,0,1,.81.64,1.13,1.13,0,1,1-.56,2.17.94.94,0,0,1-.89.66,1,1,0,0,1-.47-.14,2.23,2.23,0,0,1-1,.23,2.19,2.19,0,0,1-1.6-.71,1.08,1.08,0,0,1-.6.17,1.13,1.13,0,0,1-.93-1.76Z"/><path class="cls-2" d="M307.54,333.27a.88.88,0,0,1,0-.17.56.56,0,0,1,.56-.57l.15,0a1,1,0,0,1,.69-.52.57.57,0,0,1,0-.18.7.7,0,0,1,.69-.69h.05a1.09,1.09,0,0,1,2.08.4h0a.55.55,0,0,1,.55.54.67.67,0,0,1,.28-.06.8.8,0,0,1,.78.63,1.09,1.09,0,0,1-.1,2.18,1.32,1.32,0,0,1-.44-.08.9.9,0,0,1-.86.63.91.91,0,0,1-.46-.13,2,2,0,0,1-.93.22,2.09,2.09,0,0,1-1.54-.68,1.16,1.16,0,0,1-.58.17,1.1,1.1,0,0,1-1.09-1.11A1.18,1.18,0,0,1,307.54,333.27Z"/><path class="cls-2" d="M307.79,333.13a.44.44,0,0,1,0-.16.51.51,0,0,1,.51-.52.34.34,0,0,1,.14,0A1,1,0,0,1,309,332a.88.88,0,0,1,0-.16.62.62,0,0,1,.61-.62h.05a1,1,0,0,1,1.9.37h0a.5.5,0,0,1,.52.48.92.92,0,0,1,.25-.05.73.73,0,0,1,.71.57,1,1,0,0,1,.9,1,1,1,0,0,1-1,1,1.06,1.06,0,0,1-.4-.09.82.82,0,0,1-.78.58.78.78,0,0,1-.41-.11,2,2,0,0,1-.86.19,1.87,1.87,0,0,1-1.4-.62,1,1,0,0,1-.53.16,1,1,0,0,1-1-1A1.06,1.06,0,0,1,307.79,333.13Z"/><path class="cls-2" d="M296.67,325.26a1.7,1.7,0,0,1-.08-.46,1.48,1.48,0,0,1,1.48-1.48,1.74,1.74,0,0,1,.39.05,2.8,2.8,0,0,1,1.77-1.36,2.2,2.2,0,0,1-.05-.44,1.78,1.78,0,0,1,1.77-1.78h.15a2.81,2.81,0,0,1,2.58-1.69,2.84,2.84,0,0,1,2.82,2.71h.07a1.49,1.49,0,0,1,1.47,1.41,2,2,0,0,1,.71-.13,2.09,2.09,0,0,1,2,1.62,2.85,2.85,0,1,1-1.39,5.45,2.35,2.35,0,0,1-2.24,1.65,2.2,2.2,0,0,1-1.19-.34,5.34,5.34,0,0,1-2.43.58,5.44,5.44,0,0,1-4-1.78,2.82,2.82,0,0,1-4.33-2.41A2.9,2.9,0,0,1,296.67,325.26Z"/><path class="cls-2" d="M297,325.23a1.23,1.23,0,0,1-.07-.44,1.41,1.41,0,0,1,1.4-1.43,1.59,1.59,0,0,1,.39.06,2.75,2.75,0,0,1,1.72-1.33,1.45,1.45,0,0,1-.06-.41,1.71,1.71,0,0,1,1.71-1.73h.14a2.72,2.72,0,0,1,5.22,1h.08a1.42,1.42,0,0,1,1.4,1.36,2.06,2.06,0,0,1,.7-.12,2,2,0,0,1,1.95,1.56,2.76,2.76,0,0,1-.24,5.5,2.63,2.63,0,0,1-1.09-.24,2.28,2.28,0,0,1-2.17,1.6,2.26,2.26,0,0,1-1.15-.32,5.23,5.23,0,0,1-6.21-1.17,2.68,2.68,0,0,1-1.46.42,2.74,2.74,0,0,1-2.73-2.75A2.78,2.78,0,0,1,297,325.23Z"/><path class="cls-2" d="M297.58,324.87a1.4,1.4,0,0,1-.06-.41,1.3,1.3,0,0,1,1.29-1.3,1.27,1.27,0,0,1,.34,0,2.47,2.47,0,0,1,1.56-1.2,1.74,1.74,0,0,1,0-.39,1.57,1.57,0,0,1,1.56-1.57h.13a2.48,2.48,0,0,1,4.74.9h.05a1.3,1.3,0,0,1,1.31,1.24,1.61,1.61,0,0,1,.63-.12,1.84,1.84,0,0,1,1.78,1.42,2.51,2.51,0,0,1-.22,5,2.36,2.36,0,0,1-1-.21,2.07,2.07,0,0,1-2,1.46,2,2,0,0,1-1.05-.3,4.7,4.7,0,0,1-2.12.5,4.75,4.75,0,0,1-3.53-1.56,2.49,2.49,0,0,1-3.81-2.12A2.48,2.48,0,0,1,297.58,324.87Z"/><path class="cls-2" d="M299.19,332.78a.43.43,0,0,1,0-.11.36.36,0,0,1,.36-.36h.09a.74.74,0,0,1,.44-.33.2.2,0,0,1,0-.11.43.43,0,0,1,.43-.43h0a.68.68,0,0,1,1.31.24h0a.35.35,0,0,1,.35.34l.18,0a.5.5,0,0,1,.49.39.69.69,0,0,1,.62.69.68.68,0,0,1-.68.69.76.76,0,0,1-.27,0,.58.58,0,0,1-.84.31,1.31,1.31,0,0,1-1.56-.29.63.63,0,0,1-.35.11.69.69,0,0,1-.7-.69A.72.72,0,0,1,299.19,332.78Z"/><path class="cls-2" d="M299.26,332.78a.52.52,0,0,1,0-.11.35.35,0,0,1,.35-.35h.09a.69.69,0,0,1,.41-.32.34.34,0,0,1,0-.1.41.41,0,0,1,.42-.41h0a.65.65,0,0,1,1.26.23h0a.35.35,0,0,1,.35.33.45.45,0,0,1,.16,0,.48.48,0,0,1,.48.38.67.67,0,0,1-.06,1.33.81.81,0,0,1-.27-.05.54.54,0,0,1-.8.3,1.23,1.23,0,0,1-.57.14,1.25,1.25,0,0,1-.94-.42.61.61,0,0,1-.35.11.67.67,0,0,1-.67-.67A.65.65,0,0,1,299.26,332.78Z"/><path class="cls-2" d="M299.41,332.69a.43.43,0,0,1,0-.11.31.31,0,0,1,.32-.31h.08a.59.59,0,0,1,.38-.29.28.28,0,0,1,0-.09.39.39,0,0,1,.37-.39h0a.62.62,0,0,1,.56-.36.6.6,0,0,1,.59.58h0a.33.33,0,0,1,.32.3.37.37,0,0,1,.15,0,.43.43,0,0,1,.42.35.59.59,0,0,1,.56.6.61.61,0,0,1-.6.61.66.66,0,0,1-.25-.05.5.5,0,0,1-.47.35.64.64,0,0,1-.27-.07,1.13,1.13,0,0,1-1.36-.27.51.51,0,0,1-.32.1.6.6,0,0,1-.6-.6A.55.55,0,0,1,299.41,332.69Z"/><path class="cls-2" d="M305,335.35a6.3,6.3,0,0,1,1,2,13.56,13.56,0,0,1,.21,4.69c-.21,1.08-.16-.75-.62-.31s-.51,1.26-.9,1.22A11,11,0,0,0,305,335.35Z"/><path class="cls-2" d="M351.26,342.62h-.72c-2.86,0-13.48,0-16.11,1.44-3.05,1.62,11.82,2.52,26.13,2s20.59,0,29.18-.36,25.23-1.62,17.89-2.16-14.51-2-18.43-2-12.89-.23-15.85.43S362.88,339.74,351.26,342.62Z"/><path class="cls-2" d="M360.16,338.07s.54,3.29-4.62,3.7-5.64,1.3-5.64,1.3a85.06,85.06,0,0,1,8.57-.41c2.92.15,3.88-1,6.32-.75s6.39,1.58,9.79,1.37,5.5-1.16,7.68-.69.34-.82-2.71-.75-5.86.14-7.29-1.71S360.16,338.07,360.16,338.07Z"/><path class="cls-2" d="M383.71,299.74s-4.54,5.79-16.59,6.38l-1,3.36a14.05,14.05,0,0,1,5.27-2.36c2.81-.48,11-4,13-7.29Z"/><path class="cls-2" d="M382.09,298.48a6.83,6.83,0,0,1-1.78,4.47c-1.82,1.81-.12.05-.06.06s1.1-.44,1.1-.44S382.73,299.57,382.09,298.48Z"/><path class="cls-2" d="M365.19,288.25s2.45.69-1.9,20.14S360.44,342,360.44,342h12.91s-6-12.19-5.3-24.26,10.42-23.65,12.42-32.23l-3.44-.36s-4.72,12.87-7.8,16c0,0,1.63-10.95.37-15.88S365.19,288.25,365.19,288.25Z"/><g class="cls-6"><path class="cls-2" d="M366.48,289.78c.61,2.19-1,11-1.75,15s-2.73,15-2.73,15,2-9.46,6.52-13.57,10.21-17.53,10.21-17.53-1.28-.11-3-.2c-1.63,4.05-4.42,10.51-6.49,12.59a77.36,77.36,0,0,0,.8-12.6C367.89,288.61,366.27,289,366.48,289.78Z"/></g><path class="cls-2" d="M344.26,304.83s3.44,8.77,17.95,14v4.48a18,18,0,0,0-5.59-4.84c-3.25-1.64-12.05-9-13.22-13.75Z"/><path class="cls-2" d="M351.59,299.79s-2.44,7.8,1.3,14.66.33.23.15.23-2.86-2.25-2.86-2.25S348.78,302.4,351.59,299.79Z"/><path class="cls-2" d="M359.43,299.87a2.82,2.82,0,0,0,.12-.77,2.42,2.42,0,0,0-2.41-2.43,2.52,2.52,0,0,0-.63.09,4.72,4.72,0,0,0-2.93-2.25,3.38,3.38,0,0,0,.09-.72,2.92,2.92,0,0,0-2.91-2.93h-.24a4.64,4.64,0,0,0-8.89,1.69h-.13a2.39,2.39,0,0,0-2.38,2.3,3.74,3.74,0,0,0-1.2-.21,3.41,3.41,0,0,0-3.32,2.67,4.69,4.69,0,0,0,.4,9.36,4.48,4.48,0,0,0,1.87-.4,3.88,3.88,0,0,0,3.69,2.71,3.78,3.78,0,0,0,1.95-.54,8.93,8.93,0,0,0,10.59-2,4.65,4.65,0,0,0,7.12-4A4.76,4.76,0,0,0,359.43,299.87Z"/><path class="cls-2" d="M359,299.83a2.25,2.25,0,0,0,.11-.74,2.33,2.33,0,0,0-2.32-2.35,2.44,2.44,0,0,0-.62.09,4.52,4.52,0,0,0-2.83-2.18,2.61,2.61,0,0,0,.09-.69,2.84,2.84,0,0,0-2.81-2.84l-.22,0a4.5,4.5,0,0,0-8.61,1.63h-.1a2.33,2.33,0,0,0-2.33,2.23,3.08,3.08,0,0,0-1.14-.21,3.31,3.31,0,0,0-3.21,2.58,4.52,4.52,0,1,0,2.2,8.66,3.72,3.72,0,0,0,3.55,2.61,3.65,3.65,0,0,0,1.91-.52,8.4,8.4,0,0,0,3.84.92,8.62,8.62,0,0,0,6.37-2.83,4.57,4.57,0,0,0,2.39.69,4.53,4.53,0,0,0,3.73-7.06Z"/><path class="cls-2" d="M357.93,299.22a1.92,1.92,0,0,0,.11-.67,2.11,2.11,0,0,0-2.68-2.06,4.07,4.07,0,0,0-2.57-2,2.74,2.74,0,0,0,.08-.64,2.58,2.58,0,0,0-2.56-2.59l-.2,0a4.08,4.08,0,0,0-7.82,1.49h-.07a2.12,2.12,0,0,0-2.15,2,2.76,2.76,0,0,0-1.05-.19A3,3,0,0,0,336.1,297a4.11,4.11,0,0,0,.37,8.21,4,4,0,0,0,1.63-.34,3.43,3.43,0,0,0,3.25,2.39,3.22,3.22,0,0,0,1.72-.49,7.62,7.62,0,0,0,3.49.84,7.88,7.88,0,0,0,5.82-2.57,4.1,4.1,0,0,0,5.55-5.8Z"/><path class="cls-2" d="M403.84,266.73a5.82,5.82,0,0,0,.32-1.92,6.07,6.07,0,0,0-6.05-6.09,5.89,5.89,0,0,0-1.63.23,11.69,11.69,0,0,0-7.32-5.68,7.42,7.42,0,0,0,.22-1.78,7.34,7.34,0,0,0-7.32-7.38,3.9,3.9,0,0,0-.59,0,11.65,11.65,0,0,0-22.31,4.23l-.32,0a6.07,6.07,0,0,0-6,5.8,8.32,8.32,0,0,0-3-.55,8.61,8.61,0,0,0-8.37,6.72,11.77,11.77,0,0,0,1,23.49,11.42,11.42,0,0,0,4.68-1,9.72,9.72,0,0,0,9.26,6.81,9.53,9.53,0,0,0,4.92-1.37,22.3,22.3,0,0,0,26.56-5,11.59,11.59,0,0,0,6.23,1.82,11.78,11.78,0,0,0,9.67-18.36Z"/><path class="cls-2" d="M402.65,266.64a6,6,0,0,0,.29-1.86,5.82,5.82,0,0,0-7.41-5.67,11.3,11.3,0,0,0-7.09-5.47,6.64,6.64,0,0,0,.24-1.74,7.11,7.11,0,0,0-7.08-7.12,5.44,5.44,0,0,0-.57,0,11.26,11.26,0,0,0-21.56,4.1h-.3a5.85,5.85,0,0,0-5.83,5.59,8.2,8.2,0,0,0-10.95,6,11.37,11.37,0,0,0,1,22.68,11,11,0,0,0,4.52-.95,9.39,9.39,0,0,0,8.94,6.57,9.19,9.19,0,0,0,4.76-1.31,21.64,21.64,0,0,0,25.67-4.82A11.26,11.26,0,0,0,404.58,273,11.37,11.37,0,0,0,402.65,266.64Z"/><path class="cls-2" d="M400.1,265.11a5.19,5.19,0,0,0,.28-1.68,5.35,5.35,0,0,0-5.32-5.37,4.85,4.85,0,0,0-1.43.21,10.24,10.24,0,0,0-6.44-5,6.82,6.82,0,0,0,.19-1.57,6.46,6.46,0,0,0-6.44-6.49l-.51,0A10.25,10.25,0,0,0,360.81,249h-.26a5.33,5.33,0,0,0-5.32,5.08,7.7,7.7,0,0,0-2.61-.47,7.56,7.56,0,0,0-7.35,5.89,10.35,10.35,0,1,0,5,19.79,8.54,8.54,0,0,0,8.12,6,8.38,8.38,0,0,0,4.33-1.2,19.7,19.7,0,0,0,23.38-4.39,10,10,0,0,0,5.45,1.6,10.36,10.36,0,0,0,8.51-16.14Z"/><path class="cls-2" d="M393.45,297.78a1.49,1.49,0,0,0,.07-.47,1.46,1.46,0,0,0-1.45-1.47,1.6,1.6,0,0,0-.39.05,2.83,2.83,0,0,0-1.78-1.37,2,2,0,0,0,.06-.44,1.79,1.79,0,0,0-1.79-1.78H388a2.82,2.82,0,0,0-5.4,1h-.06a1.48,1.48,0,0,0-1.49,1.41,2,2,0,0,0-.72-.13,2.08,2.08,0,0,0-2,1.63,2.85,2.85,0,1,0,1.38,5.45,2.36,2.36,0,0,0,2.25,1.64,2.43,2.43,0,0,0,1.19-.32,5.33,5.33,0,0,0,2.42.57,5.44,5.44,0,0,0,4-1.78,2.82,2.82,0,0,0,4.33-2.42A2.75,2.75,0,0,0,393.45,297.78Z"/><path class="cls-2" d="M393.16,297.76a1.12,1.12,0,0,0,.07-.45,1.42,1.42,0,0,0-1.41-1.44,1.22,1.22,0,0,0-.38.07,2.72,2.72,0,0,0-1.71-1.34,1.77,1.77,0,0,0,0-.41,1.72,1.72,0,0,0-1.71-1.74h-.14a2.72,2.72,0,0,0-2.5-1.62,2.75,2.75,0,0,0-2.73,2.62h-.06a1.42,1.42,0,0,0-1.42,1.36,1.82,1.82,0,0,0-.7-.14,2,2,0,0,0-2,1.57,2.76,2.76,0,1,0,1.35,5.27,2.27,2.27,0,0,0,2.16,1.59,2.22,2.22,0,0,0,1.15-.31,5.24,5.24,0,0,0,6.23-1.18,2.58,2.58,0,0,0,1.45.44,2.75,2.75,0,0,0,2.73-2.76A2.7,2.7,0,0,0,393.16,297.76Z"/><path class="cls-2" d="M392.56,297.4a2.13,2.13,0,0,0,.06-.42,1.31,1.31,0,0,0-1.3-1.31,1.28,1.28,0,0,0-.34.06,2.51,2.51,0,0,0-1.56-1.21,1.67,1.67,0,0,0,.05-.39,1.57,1.57,0,0,0-1.55-1.57l-.14,0a2.46,2.46,0,0,0-2.27-1.5,2.51,2.51,0,0,0-2.48,2.39H383a1.31,1.31,0,0,0-1.29,1.24,1.57,1.57,0,0,0-.63-.12,1.84,1.84,0,0,0-1.78,1.44,2.5,2.5,0,1,0,1.22,4.79,2.06,2.06,0,0,0,2,1.44,2,2,0,0,0,1.05-.29,4.79,4.79,0,0,0,5.67-1.06,2.46,2.46,0,0,0,1.31.39,2.51,2.51,0,0,0,2.5-2.51A2.59,2.59,0,0,0,392.56,297.4Z"/><path class="cls-2" d="M369.6,308.39a25.9,25.9,0,0,0-4.35,8.31c-1.46,4.84-1.64,14.89-.82,19.36s.63-3.1,2.53-1.27,2.08,5.21,3.72,5C370.68,339.81,364.07,326.57,369.6,308.39Z"/><path class="cls-2" d="M394.48,340.81s-.19,1.17,1.65,1.31,2,.47,2,.47a29,29,0,0,0-3.06-.15c-1,.05-1.38-.34-2.25-.27a21.37,21.37,0,0,1-3.5.49,11.65,11.65,0,0,0-2.73-.23c-.78.16-.13-.31,1-.28s2.08.05,2.59-.61S394.48,340.81,394.48,340.81Z"/><path class="cls-2" d="M386.09,327.14s1.62,2.06,5.91,2.28l.36,1.19a4.94,4.94,0,0,0-1.88-.84c-1-.18-3.93-1.41-4.63-2.6Z"/><path class="cls-2" d="M386.66,326.68a2.51,2.51,0,0,0,.63,1.6c.65.64,0,0,0,0l-.4-.15S386.44,327.08,386.66,326.68Z"/><path class="cls-2" d="M392.69,323.05s-.87.25.67,7.18a41.06,41.06,0,0,1,1,12h-4.6a19.94,19.94,0,0,0,1.89-8.65c-.26-4.29-3.74-8.42-4.44-11.48l1.23-.14s1.68,4.59,2.78,5.7c0,0-.58-3.91-.12-5.67S392.69,323.05,392.69,323.05Z"/><g class="cls-6"><path class="cls-2" d="M392.23,323.59c-.22.78.36,3.93.63,5.35s1,5.34,1,5.34-.73-3.37-2.33-4.82-3.63-6.26-3.63-6.26.45,0,1.07-.07a18.89,18.89,0,0,0,2.31,4.49,27.8,27.8,0,0,1-.28-4.49C391.73,323.17,392.31,323.3,392.23,323.59Z"/></g><path class="cls-2" d="M400.15,329s-1.23,3.12-6.39,5v1.59a6.1,6.1,0,0,1,2-1.72c1.15-.59,4.3-3.2,4.71-4.9Z"/><path class="cls-2" d="M397.54,327.15a7.47,7.47,0,0,1-.46,5.24c-1.33,2.45-.12.07-.06.07s1-.79,1-.79S398.54,328.09,397.54,327.15Z"/><path class="cls-2" d="M394.74,327.19a.88.88,0,0,1,.83-1.14.78.78,0,0,1,.22,0,1.66,1.66,0,0,1,1-.8.61.61,0,0,1,0-.26,1,1,0,0,1,1.05-1h.07a1.64,1.64,0,0,1,1.52-1,1.67,1.67,0,0,1,1.66,1.58h0a.85.85,0,0,1,.86.82,1.16,1.16,0,0,1,.42-.07,1.21,1.21,0,0,1,1.19.95,1.67,1.67,0,0,1-.15,3.33,1.63,1.63,0,0,1-.66-.14,1.38,1.38,0,0,1-1.31,1,1.36,1.36,0,0,1-.7-.2,3.16,3.16,0,0,1-3.78-.71,1.63,1.63,0,0,1-.89.26,1.65,1.65,0,0,1-1.64-1.67A1.69,1.69,0,0,1,394.74,327.19Z"/><path class="cls-2" d="M394.91,327.17a1.17,1.17,0,0,1,0-.26.84.84,0,0,1,.83-.84.73.73,0,0,1,.22,0,1.55,1.55,0,0,1,1-.76.82.82,0,0,1,0-.26,1,1,0,0,1,1-1H398a1.6,1.6,0,0,1,3.07.58h.05a.84.84,0,0,1,.82.8,1.06,1.06,0,0,1,.4-.09,1.18,1.18,0,0,1,1.15.94,1.59,1.59,0,0,1,1.45,1.6,1.6,1.6,0,0,1-1.59,1.61,1.7,1.7,0,0,1-.64-.13,1.33,1.33,0,0,1-1.28.93,1.3,1.3,0,0,1-.67-.19,3,3,0,0,1-3.64-.68,1.69,1.69,0,0,1-.86.25,1.62,1.62,0,0,1-1.33-2.52Z"/><path class="cls-2" d="M395.27,327a.85.85,0,0,1,0-.23A.77.77,0,0,1,396,326a.51.51,0,0,1,.2,0,1.45,1.45,0,0,1,.91-.71,1.81,1.81,0,0,1,0-.23.92.92,0,0,1,.91-.92h.07a1.46,1.46,0,0,1,2.8.54h0a.74.74,0,0,1,.76.71,1.35,1.35,0,0,1,.37-.07,1.09,1.09,0,0,1,1.05.84,1.48,1.48,0,0,1,1.31,1.47,1.46,1.46,0,0,1-1.45,1.47,1.68,1.68,0,0,1-.59-.12,1.2,1.2,0,0,1-1.14.84,1.17,1.17,0,0,1-.62-.16,2.87,2.87,0,0,1-1.25.28,2.79,2.79,0,0,1-2.07-.91,1.43,1.43,0,0,1-.78.23,1.46,1.46,0,0,1-1.46-1.47A1.56,1.56,0,0,1,395.27,327Z"/><path class="cls-2" d="M378.91,315.37a2.14,2.14,0,0,1,2-2.85,2.12,2.12,0,0,1,.57.07,4.19,4.19,0,0,1,2.62-2,2.81,2.81,0,0,1-.07-.65,2.61,2.61,0,0,1,2.6-2.62h.21a4.16,4.16,0,0,1,8,1.5h.1a2.17,2.17,0,0,1,2.16,2.07,3,3,0,0,1,4,2.2,4.2,4.2,0,0,1-.37,8.38,4.15,4.15,0,0,1-1.66-.36,3.46,3.46,0,0,1-3.3,2.42,3.39,3.39,0,0,1-1.76-.48,7.9,7.9,0,0,1-3.57.85,8,8,0,0,1-5.9-2.63,4.18,4.18,0,0,1-5.67-5.9Z"/><path class="cls-2" d="M379.34,315.33a1.93,1.93,0,0,1-.1-.65,2,2,0,0,1,2.64-2,4,4,0,0,1,2.53-2,2.1,2.1,0,0,1-.09-.61,2.52,2.52,0,0,1,2.52-2.54h.21a4,4,0,0,1,7.68,1.47l.12,0a2.09,2.09,0,0,1,2.07,2,2.88,2.88,0,0,1,1-.18,3,3,0,0,1,2.88,2.3,4.06,4.06,0,0,1-.36,8.1,3.91,3.91,0,0,1-1.61-.35,3.32,3.32,0,0,1-4.89,1.87,7.47,7.47,0,0,1-3.43.81,7.67,7.67,0,0,1-5.71-2.53,4,4,0,0,1-2.15.63,4,4,0,0,1-4-4.05A4.17,4.17,0,0,1,379.34,315.33Z"/><path class="cls-2" d="M380.25,314.79a2,2,0,0,1-.1-.6,1.9,1.9,0,0,1,1.9-1.91,2,2,0,0,1,.5.07,3.68,3.68,0,0,1,2.3-1.77,2.17,2.17,0,0,1-.07-.57,2.31,2.31,0,0,1,2.3-2.31.65.65,0,0,1,.19,0,3.64,3.64,0,0,1,7,1.32h.08a1.89,1.89,0,0,1,1.92,1.82,2.6,2.6,0,0,1,.93-.17,2.68,2.68,0,0,1,2.62,2.09,3.69,3.69,0,0,1-.32,7.37,3.48,3.48,0,0,1-1.48-.32A3,3,0,0,1,395.1,322a2.94,2.94,0,0,1-1.54-.44,7,7,0,0,1-8.33-1.56,3.68,3.68,0,0,1-5-5.19Z"/><path class="cls-2" d="M382.62,326.44a.45.45,0,0,1,0-.16.53.53,0,0,1,.53-.53h.13a1,1,0,0,1,.64-.48.41.41,0,0,1,0-.16.64.64,0,0,1,.63-.64h0a1,1,0,0,1,.93-.6,1,1,0,0,1,1,1h0a.52.52,0,0,1,.52.5,1.17,1.17,0,0,1,.26,0,.74.74,0,0,1,.72.58,1,1,0,0,1-.08,2,1.07,1.07,0,0,1-.41-.09.85.85,0,0,1-.8.59.89.89,0,0,1-.43-.12,1.94,1.94,0,0,1-.86.2,2,2,0,0,1-1.44-.63.94.94,0,0,1-.52.16,1,1,0,0,1-.84-1.59Z"/><path class="cls-2" d="M382.71,326.44a1.1,1.1,0,0,1,0-.16.52.52,0,0,1,.52-.52l.13,0a1,1,0,0,1,.61-.47.76.76,0,0,1,0-.15.61.61,0,0,1,.61-.61h0a1,1,0,0,1,1.86.35h0a.51.51,0,0,1,.51.48.67.67,0,0,1,.24,0,.72.72,0,0,1,.71.56,1,1,0,0,1-.1,2,1,1,0,0,1-.38-.08.81.81,0,0,1-.77.56.85.85,0,0,1-.42-.11,1.93,1.93,0,0,1-.84.2,1.88,1.88,0,0,1-1.38-.62.91.91,0,0,1-.51.16,1,1,0,0,1-1-1A1,1,0,0,1,382.71,326.44Z"/><path class="cls-2" d="M382.94,326.3a.37.37,0,0,1,0-.15.46.46,0,0,1,.46-.45h.13a.84.84,0,0,1,.56-.43.34.34,0,0,1,0-.14.56.56,0,0,1,.55-.56h.05a.91.91,0,0,1,.81-.53.89.89,0,0,1,.88.85h0a.47.47,0,0,1,.46.45.51.51,0,0,1,.22,0,.64.64,0,0,1,.63.51.88.88,0,0,1,.82.88.89.89,0,0,1-.89.9,1,1,0,0,1-.36-.07.73.73,0,0,1-.7.51.9.9,0,0,1-.39-.1,1.62,1.62,0,0,1-.74.18,1.68,1.68,0,0,1-1.26-.57.88.88,0,0,1-1.36-.75A.84.84,0,0,1,382.94,326.3Z"/><path class="cls-2" d="M391.13,330.23a9.12,9.12,0,0,1,1.54,3,19.68,19.68,0,0,1,.3,6.9c-.3,1.59-.23-1.11-.91-.46s-.74,1.86-1.32,1.8A16.24,16.24,0,0,0,391.13,330.23Z"/><path class="cls-2" d="M76.22,343.77h-.48c-1.95,0-9.16,0-10.94,1-2.08,1.1,8,1.71,17.74,1.34s14,0,19.82-.24,17.14-1.1,12.15-1.47S104.66,343,102,343s-8.75-.16-10.76.29S84.12,341.81,76.22,343.77Z"/><path class="cls-2" d="M82.27,340.68s.37,2.24-3.14,2.51-3.83.89-3.83.89a57.06,57.06,0,0,1,5.82-.28c2,.09,2.64-.65,4.29-.52s4.35,1.08,6.65.94,3.74-.79,5.22-.47.23-.56-1.84-.51-4,.09-5-1.17S82.27,340.68,82.27,340.68Z"/><path class="cls-2" d="M98.26,314.65S95.18,318.58,87,319l-.68,2.28a9.53,9.53,0,0,1,3.58-1.6c1.9-.33,7.49-2.69,8.82-5Z"/><path class="cls-2" d="M97.16,313.79a4.64,4.64,0,0,1-1.21,3c-1.23,1.22-.08,0,0,0s.75-.3.75-.3S97.6,314.53,97.16,313.79Z"/><path class="cls-2" d="M85.68,306.84s1.67.47-1.28,13.68a77.47,77.47,0,0,0-1.94,22.8h8.77s-4.09-8.28-3.6-16.47,7.08-16.07,8.44-21.9l-2.34-.24s-3.21,8.74-5.3,10.84c0,0,1.11-7.44.25-10.78S85.68,306.84,85.68,306.84Z"/><g class="cls-6"><path class="cls-2" d="M86.56,307.88c.42,1.49-.68,7.49-1.19,10.19s-1.85,10.19-1.85,10.19,1.39-6.42,4.43-9.21,6.93-11.91,6.93-11.91-.87-.07-2-.13c-1.11,2.74-3,7.14-4.41,8.54A53.35,53.35,0,0,0,89,307C87.52,307.09,86.42,307.33,86.56,307.88Z"/></g><path class="cls-2" d="M71.47,318.1s2.34,6,12.19,9.49v3a12.14,12.14,0,0,0-3.79-3.29c-2.21-1.11-8.19-6.08-9-9.34Z"/><path class="cls-2" d="M76.45,314.68s-1.66,5.29.88,9.95.23.16.11.16-2-1.52-2-1.52S74.54,316.45,76.45,314.68Z"/><path class="cls-2" d="M81.77,314.73a1.83,1.83,0,0,0,.09-.52,1.65,1.65,0,0,0-1.64-1.65,1.94,1.94,0,0,0-.43.06,3.23,3.23,0,0,0-2-1.53,1.93,1.93,0,0,0,.06-.49,2,2,0,0,0-2-2h-.16a3.15,3.15,0,0,0-6,1.15H69.6A1.63,1.63,0,0,0,68,311.32a2.48,2.48,0,0,0-.82-.14A2.31,2.31,0,0,0,64.91,313a3.18,3.18,0,0,0,.27,6.35,3,3,0,0,0,1.27-.27A2.64,2.64,0,0,0,69,320.92a2.54,2.54,0,0,0,1.32-.37,6.07,6.07,0,0,0,7.2-1.34,3.17,3.17,0,0,0,4.29-4.48Z"/><path class="cls-2" d="M81.45,314.7a1.32,1.32,0,0,0,.07-.49,1.59,1.59,0,0,0-1.57-1.6,1.42,1.42,0,0,0-.42.06,3.08,3.08,0,0,0-1.92-1.48,2.42,2.42,0,0,0,.06-.47,1.93,1.93,0,0,0-1.91-1.93H75.6a3.05,3.05,0,0,0-5.84,1.11h-.07a1.58,1.58,0,0,0-1.58,1.52,2,2,0,0,0-.78-.14A2.25,2.25,0,0,0,65.15,313a3.07,3.07,0,0,0,.27,6.13,3.14,3.14,0,0,0,1.23-.25,2.52,2.52,0,0,0,3.71,1.42A5.67,5.67,0,0,0,73,321,5.82,5.82,0,0,0,77.29,319a3.13,3.13,0,0,0,1.63.47,3.06,3.06,0,0,0,3-3.07A3.09,3.09,0,0,0,81.45,314.7Z"/><path class="cls-2" d="M80.75,314.29a1.16,1.16,0,0,0,.08-.45,1.44,1.44,0,0,0-1.44-1.45,1.2,1.2,0,0,0-.38.05,2.77,2.77,0,0,0-1.74-1.34,2.1,2.1,0,0,0,0-.43,1.75,1.75,0,0,0-1.74-1.76h-.14a2.77,2.77,0,0,0-5.3,1h0a1.46,1.46,0,0,0-1.47,1.39,1.8,1.8,0,0,0-.71-.13,2,2,0,0,0-2,1.59,2.8,2.8,0,0,0,.25,5.58,3,3,0,0,0,1.11-.23,2.34,2.34,0,0,0,2.21,1.62,2.21,2.21,0,0,0,1.16-.33A5.27,5.27,0,0,0,73,320a5.37,5.37,0,0,0,4-1.74,2.69,2.69,0,0,0,1.47.42,2.79,2.79,0,0,0,2.78-2.79A2.73,2.73,0,0,0,80.75,314.29Z"/><path class="cls-2" d="M111.94,292.22a3.94,3.94,0,0,0,.22-1.3,4.14,4.14,0,0,0-4.11-4.14,4,4,0,0,0-1.11.16,8,8,0,0,0-5-3.86,5.21,5.21,0,0,0,.15-1.21,5,5,0,0,0-5-5,2.83,2.83,0,0,0-.41,0,7.91,7.91,0,0,0-15.15,2.87h-.21a4.12,4.12,0,0,0-4.1,3.94,5.62,5.62,0,0,0-2-.37,5.85,5.85,0,0,0-5.68,4.56,8,8,0,0,0,.71,15.95,7.69,7.69,0,0,0,3.18-.68,6.6,6.6,0,0,0,6.28,4.63,6.51,6.51,0,0,0,3.35-.93,15.14,15.14,0,0,0,18-3.39,7.85,7.85,0,0,0,4.23,1.24,8,8,0,0,0,6.57-12.48Z"/><path class="cls-2" d="M111.13,292.17a4.12,4.12,0,0,0,.2-1.27,4,4,0,0,0-4-4,4.19,4.19,0,0,0-1.07.15,7.63,7.63,0,0,0-4.81-3.72,4.54,4.54,0,0,0,.16-1.18,4.82,4.82,0,0,0-4.81-4.83l-.38,0a7.65,7.65,0,0,0-14.65,2.78h-.2a4,4,0,0,0-4,3.8,5.76,5.76,0,0,0-2-.36A5.65,5.65,0,0,0,70.2,288a7.72,7.72,0,0,0,.68,15.4,7.51,7.51,0,0,0,3.08-.64A6.37,6.37,0,0,0,80,307.18a6.24,6.24,0,0,0,3.23-.89A14.71,14.71,0,0,0,100.7,303a7.51,7.51,0,0,0,4.08,1.2,7.73,7.73,0,0,0,6.35-12Z"/><path class="cls-2" d="M109.4,291.13a3.66,3.66,0,0,0-3.43-4.79,3.38,3.38,0,0,0-1,.14,7,7,0,0,0-4.38-3.39,4.75,4.75,0,0,0,.13-1.07,4.38,4.38,0,0,0-4.38-4.4H96a7,7,0,0,0-13.33,2.54h-.18a3.62,3.62,0,0,0-3.61,3.46,4.93,4.93,0,0,0-1.77-.33,5.13,5.13,0,0,0-5,4,7,7,0,1,0,3.42,13.44,5.79,5.79,0,0,0,5.51,4.06A5.62,5.62,0,0,0,84,304a13.38,13.38,0,0,0,15.89-3,6.84,6.84,0,0,0,3.7,1.09,7,7,0,0,0,5.78-11Z"/><path class="cls-2" d="M104.88,313.31a1.07,1.07,0,0,0,.05-.32,1,1,0,0,0-1-1,1.09,1.09,0,0,0-.26,0,1.93,1.93,0,0,0-1.21-.93,1.36,1.36,0,0,0,0-.3,1.22,1.22,0,0,0-1.22-1.21h-.09a1.91,1.91,0,0,0-3.66.7h0a1,1,0,0,0-1,.95,1.32,1.32,0,0,0-.48-.09,1.42,1.42,0,0,0-1.38,1.11,1.93,1.93,0,0,0,.17,3.86,1.8,1.8,0,0,0,.77-.16,1.61,1.61,0,0,0,1.53,1.12,1.58,1.58,0,0,0,.81-.22,3.6,3.6,0,0,0,1.64.38,3.69,3.69,0,0,0,2.73-1.2,2,2,0,0,0,1,.3,1.94,1.94,0,0,0,1.93-1.95A1.87,1.87,0,0,0,104.88,313.31Z"/><path class="cls-2" d="M104.68,313.3a.81.81,0,0,0,0-.31,1,1,0,0,0-1-1,1.17,1.17,0,0,0-.26,0,1.84,1.84,0,0,0-1.16-.91,1.16,1.16,0,0,0-1.12-1.46h-.1a1.86,1.86,0,0,0-3.55.68h0a1,1,0,0,0-1,.92,1.23,1.23,0,0,0-.47-.09,1.37,1.37,0,0,0-1.33,1.07,1.87,1.87,0,0,0,.17,3.73,2,2,0,0,0,.74-.15,1.54,1.54,0,0,0,1.47,1.07,1.45,1.45,0,0,0,.78-.21,3.53,3.53,0,0,0,4.23-.8,1.78,1.78,0,0,0,1,.3,1.87,1.87,0,0,0,1.86-1.87A1.8,1.8,0,0,0,104.68,313.3Z"/><path class="cls-2" d="M104.27,313.05a1.37,1.37,0,0,0,0-.28.89.89,0,0,0-.88-.89.79.79,0,0,0-.23,0,1.74,1.74,0,0,0-1.07-.82,1.17,1.17,0,0,0,0-.26,1.07,1.07,0,0,0-1.06-1.07H101a1.67,1.67,0,0,0-1.54-1,1.7,1.7,0,0,0-1.69,1.62h0a.88.88,0,0,0-.87.84,1.18,1.18,0,0,0-.43-.08,1.25,1.25,0,0,0-1.21,1,1.7,1.7,0,0,0,.16,3.4,1.82,1.82,0,0,0,.67-.14,1.4,1.4,0,0,0,1.34,1,1.31,1.31,0,0,0,.71-.2,3.25,3.25,0,0,0,3.85-.72,1.63,1.63,0,0,0,.89.26,1.7,1.7,0,0,0,1.7-1.7A1.72,1.72,0,0,0,104.27,313.05Z"/><path class="cls-2" d="M88.68,320.52a17.54,17.54,0,0,0-3,5.64c-1,3.29-1.11,10.12-.55,13.15s.43-2.11,1.72-.86,1.41,3.54,2.52,3.41C89.41,341.86,84.92,332.87,88.68,320.52Z"/><path class="cls-2" d="M105.58,342.54s-.13.79,1.12.89,1.37.32,1.37.32a18.2,18.2,0,0,0-2.07-.1c-.72,0-.94-.24-1.53-.19a14.77,14.77,0,0,1-2.38.34,8,8,0,0,0-1.86-.16c-.52.11-.08-.21.66-.19s1.42,0,1.76-.42S105.58,342.54,105.58,342.54Z"/><path class="cls-2" d="M99.88,333.26s1.1,1.39,4,1.54l.24.81a3.46,3.46,0,0,0-1.28-.57c-.68-.12-2.67-1-3.14-1.77Z"/><path class="cls-2" d="M100.27,332.94a1.71,1.71,0,0,0,.43,1.09c.44.43,0,0,0,0l-.27-.1S100.12,333.21,100.27,332.94Z"/><path class="cls-2" d="M104.37,330.47s-.6.18.45,4.88a28.07,28.07,0,0,1,.7,8.13h-3.13a13.52,13.52,0,0,0,1.29-5.88c-.18-2.91-2.54-5.72-3-7.8l.84-.09a17.45,17.45,0,0,0,1.89,3.87,13.91,13.91,0,0,1-.09-3.85C103.61,328.54,104.37,330.47,104.37,330.47Z"/><g class="cls-6"><path class="cls-2" d="M104.05,330.84a15.5,15.5,0,0,0,.43,3.64c.18,1,.66,3.63.66,3.63a7.61,7.61,0,0,0-1.58-3.28c-1.09-1-2.47-4.25-2.47-4.25l.73-.05a12.51,12.51,0,0,0,1.57,3.05,18.61,18.61,0,0,1-.19-3.05C103.71,330.56,104.11,330.65,104.05,330.84Z"/></g><path class="cls-2" d="M109.43,334.49s-.83,2.12-4.34,3.38V339a4.22,4.22,0,0,1,1.35-1.17c.79-.4,2.92-2.17,3.2-3.32Z"/><path class="cls-2" d="M107.66,333.26a5.06,5.06,0,0,1-.32,3.56c-.9,1.66-.08.05,0,.05s.7-.54.7-.54S108.34,333.9,107.66,333.26Z"/><path class="cls-2" d="M105.76,333.29a.58.58,0,0,1,0-.19.59.59,0,0,1,.59-.59.37.37,0,0,1,.15,0,1.16,1.16,0,0,1,.71-.55.52.52,0,0,1,0-.17.71.71,0,0,1,.71-.72h0a1.12,1.12,0,0,1,2.15.4h0a.59.59,0,0,1,.58.56.88.88,0,0,1,.29,0,.82.82,0,0,1,.81.64,1.13,1.13,0,1,1-.56,2.17.94.94,0,0,1-.89.66,1,1,0,0,1-.47-.14,2.23,2.23,0,0,1-1,.23,2.19,2.19,0,0,1-1.6-.71,1.11,1.11,0,0,1-.6.17,1.13,1.13,0,0,1-.93-1.76Z"/><path class="cls-2" d="M105.87,333.27a.88.88,0,0,1,0-.17.56.56,0,0,1,.56-.57l.15,0a1,1,0,0,1,.69-.52.57.57,0,0,1,0-.18.7.7,0,0,1,.69-.69h0a1.09,1.09,0,0,1,2.08.4h0a.56.56,0,0,1,.56.54.64.64,0,0,1,.28-.06.8.8,0,0,1,.78.63,1.09,1.09,0,0,1-.1,2.18,1.32,1.32,0,0,1-.44-.08.9.9,0,0,1-.86.63.91.91,0,0,1-.46-.13,2,2,0,0,1-.93.22,2.09,2.09,0,0,1-1.54-.68,1.19,1.19,0,0,1-.58.17,1.1,1.1,0,0,1-1.09-1.11A1.18,1.18,0,0,1,105.87,333.27Z"/><path class="cls-2" d="M106.12,333.13a.44.44,0,0,1,0-.16.51.51,0,0,1,.51-.52.34.34,0,0,1,.14,0,1,1,0,0,1,.62-.48.9.9,0,0,1,0-.16.63.63,0,0,1,.62-.62H108a1,1,0,0,1,1.9.37h0a.5.5,0,0,1,.52.48.92.92,0,0,1,.25-.05.74.74,0,0,1,.71.57,1,1,0,0,1,.9,1,1,1,0,0,1-1,1,1.06,1.06,0,0,1-.4-.09.83.83,0,0,1-.78.58.85.85,0,0,1-.42-.11,2,2,0,0,1-.85.19,1.87,1.87,0,0,1-1.4-.62,1,1,0,0,1-.53.16,1,1,0,0,1-1-1A1.06,1.06,0,0,1,106.12,333.13Z"/><path class="cls-2" d="M95,325.26a1.7,1.7,0,0,1-.08-.46,1.48,1.48,0,0,1,1.48-1.48,1.74,1.74,0,0,1,.39.05A2.8,2.8,0,0,1,98.56,322a2.2,2.2,0,0,1,0-.44,1.78,1.78,0,0,1,1.77-1.78h.15A2.81,2.81,0,0,1,103,318.1a2.84,2.84,0,0,1,2.82,2.71h.07a1.49,1.49,0,0,1,1.47,1.41,2,2,0,0,1,.71-.13,2.07,2.07,0,0,1,2,1.62,2.85,2.85,0,1,1-1.38,5.45,2.35,2.35,0,0,1-2.24,1.65,2.2,2.2,0,0,1-1.19-.34,5.34,5.34,0,0,1-2.43.58,5.44,5.44,0,0,1-4-1.78,2.82,2.82,0,0,1-4.33-2.41A2.9,2.9,0,0,1,95,325.26Z"/><path class="cls-2" d="M95.3,325.23a1.23,1.23,0,0,1-.07-.44,1.41,1.41,0,0,1,1.4-1.43,1.59,1.59,0,0,1,.39.06,2.75,2.75,0,0,1,1.72-1.33,1.45,1.45,0,0,1-.06-.41,1.71,1.71,0,0,1,1.71-1.73h.14a2.72,2.72,0,0,1,5.22,1h.08a1.42,1.42,0,0,1,1.4,1.36,2.06,2.06,0,0,1,.7-.12,2,2,0,0,1,1.95,1.56,2.76,2.76,0,0,1-.24,5.5,2.63,2.63,0,0,1-1.09-.24,2.29,2.29,0,0,1-2.17,1.6,2.26,2.26,0,0,1-1.15-.32A5.23,5.23,0,0,1,99,329.11a2.73,2.73,0,0,1-4.19-2.33A2.78,2.78,0,0,1,95.3,325.23Z"/><path class="cls-2" d="M95.91,324.87a1.4,1.4,0,0,1-.06-.41,1.28,1.28,0,0,1,1.63-1.25A2.47,2.47,0,0,1,99,322a1.74,1.74,0,0,1-.05-.39,1.57,1.57,0,0,1,1.56-1.57h.13a2.48,2.48,0,0,1,4.74.9h0a1.3,1.3,0,0,1,1.31,1.24,1.61,1.61,0,0,1,.63-.12,1.82,1.82,0,0,1,1.77,1.42,2.51,2.51,0,0,1-.21,5,2.36,2.36,0,0,1-1-.21,2.07,2.07,0,0,1-2,1.46,2,2,0,0,1-1-.3,4.7,4.7,0,0,1-2.12.5,4.75,4.75,0,0,1-3.53-1.56,2.49,2.49,0,0,1-3.81-2.12A2.48,2.48,0,0,1,95.91,324.87Z"/><path class="cls-2" d="M97.52,332.78a.43.43,0,0,1,0-.11.36.36,0,0,1,.36-.36H98a.74.74,0,0,1,.44-.33.2.2,0,0,1,0-.11.43.43,0,0,1,.43-.43h0a.68.68,0,0,1,1.31.24h0a.35.35,0,0,1,.35.34l.18,0a.5.5,0,0,1,.49.39.69.69,0,0,1,.62.69.68.68,0,0,1-.68.69.76.76,0,0,1-.27,0,.6.6,0,0,1-.55.39A.57.57,0,0,1,100,334a1.31,1.31,0,0,1-1.56-.29.64.64,0,0,1-.36.11.69.69,0,0,1-.69-.69A.72.72,0,0,1,97.52,332.78Z"/><path class="cls-2" d="M97.59,332.78a.52.52,0,0,1,0-.11.35.35,0,0,1,.35-.35H98a.66.66,0,0,1,.41-.32.34.34,0,0,1,0-.1.41.41,0,0,1,.42-.41h0a.65.65,0,0,1,1.26.23h0a.36.36,0,0,1,.35.33.45.45,0,0,1,.16,0,.48.48,0,0,1,.48.38.67.67,0,0,1-.06,1.33.81.81,0,0,1-.27-.05.54.54,0,0,1-.8.3,1.23,1.23,0,0,1-.57.14,1.25,1.25,0,0,1-.94-.42.61.61,0,0,1-.35.11.67.67,0,0,1-.67-.67A.65.65,0,0,1,97.59,332.78Z"/><path class="cls-2" d="M97.74,332.69a.43.43,0,0,1,0-.11.31.31,0,0,1,.32-.31h.08a.59.59,0,0,1,.38-.29.28.28,0,0,1,0-.09.39.39,0,0,1,.37-.39h0a.62.62,0,0,1,.56-.36.6.6,0,0,1,.59.58h0a.33.33,0,0,1,.32.3.33.33,0,0,1,.15,0,.43.43,0,0,1,.42.35.59.59,0,0,1,.56.6.61.61,0,0,1-.6.61.66.66,0,0,1-.25-.05.5.5,0,0,1-.47.35.64.64,0,0,1-.27-.07,1.13,1.13,0,0,1-1.36-.27.51.51,0,0,1-.32.1.6.6,0,0,1-.6-.6A.55.55,0,0,1,97.74,332.69Z"/><path class="cls-2" d="M103.3,335.35a6.3,6.3,0,0,1,1,2,13.56,13.56,0,0,1,.21,4.69c-.21,1.08-.16-.75-.62-.31s-.51,1.26-.9,1.22A11.06,11.06,0,0,0,103.3,335.35Z"/><path class="cls-2" d="M19.43,344.77h-.28c-1.15,0-5.4,0-6.45.57-1.22.65,4.73,1,10.46.8s8.24,0,11.68-.15,10.1-.65,7.16-.86-5.8-.8-7.37-.8a49.65,49.65,0,0,0-6.35.17C27.1,344.77,24.09,343.61,19.43,344.77Z"/><path class="cls-2" d="M23,343s.22,1.31-1.85,1.47-2.26.53-2.26.53a34.11,34.11,0,0,1,3.43-.17c1.17.06,1.56-.38,2.53-.3a23.55,23.55,0,0,0,3.92.55c1.36-.08,2.2-.46,3.08-.27s.13-.34-1.09-.31-2.34.06-2.92-.68S23,343,23,343Z"/><path class="cls-2" d="M32.43,327.6s-1.82,2.32-6.65,2.55l-.4,1.35a5.58,5.58,0,0,1,2.11-.95c1.13-.19,4.42-1.58,5.21-2.91Z"/><path class="cls-2" d="M31.78,327.09a2.73,2.73,0,0,1-.72,1.79c-.72.73,0,0,0,0l.44-.18S32,327.53,31.78,327.09Z"/><path class="cls-2" d="M25,323s1,.27-.76,8.06a45.78,45.78,0,0,0-1.14,13.44h5.17a22.28,22.28,0,0,1-2.12-9.71c.29-4.82,4.17-9.47,5-12.91l-1.38-.14s-1.89,5.15-3.12,6.39c0,0,.65-4.38.15-6.35S25,323,25,323Z"/><g class="cls-6"><path class="cls-2" d="M25.53,323.61c.24.88-.41,4.42-.7,6s-1.09,6-1.09,6,.81-3.78,2.61-5.43,4.08-7,4.08-7-.51-.05-1.2-.08c-.65,1.62-1.77,4.2-2.6,5a31.24,31.24,0,0,0,.32-5C26.09,323.14,25.44,323.28,25.53,323.61Z"/></g><path class="cls-2" d="M16.63,329.64s1.38,3.51,7.19,5.59V337a7.19,7.19,0,0,0-2.24-1.94c-1.3-.65-4.82-3.58-5.29-5.5Z"/><path class="cls-2" d="M19.57,327.62a8.32,8.32,0,0,0,.52,5.87c1.49,2.75.13.09.06.09s-1.15-.9-1.15-.9S18.44,328.66,19.57,327.62Z"/><path class="cls-2" d="M22.7,327.65a.81.81,0,0,0,.05-.31,1,1,0,0,0-1-1,1.09,1.09,0,0,0-.26,0,1.83,1.83,0,0,0-1.17-.91,1.26,1.26,0,0,0,0-.28A1.17,1.17,0,0,0,19.23,324h-.09a1.86,1.86,0,0,0-3.56.67h-.05a1,1,0,0,0-1,.92,1.51,1.51,0,0,0-.48-.08,1.36,1.36,0,0,0-1.33,1.07,1.87,1.87,0,0,0,.17,3.74,1.7,1.7,0,0,0,.74-.16,1.57,1.57,0,0,0,1.48,1.09,1.48,1.48,0,0,0,.78-.22,3.56,3.56,0,0,0,4.24-.79,1.87,1.87,0,0,0,2.53-2.64Z"/><path class="cls-2" d="M22.51,327.63a.71.71,0,0,0,0-.29.93.93,0,0,0-.93-.94,1,1,0,0,0-.25,0,1.78,1.78,0,0,0-1.13-.87,1.27,1.27,0,0,0,0-.28,1.13,1.13,0,0,0-1.12-1.13h-.09a1.8,1.8,0,0,0-3.45.66h0a.94.94,0,0,0-.93.9,1.14,1.14,0,0,0-.46-.09,1.32,1.32,0,0,0-1.28,1,1.81,1.81,0,0,0,.16,3.62,1.75,1.75,0,0,0,.72-.15,1.49,1.49,0,0,0,1.42,1.05A1.56,1.56,0,0,0,16,331a3.4,3.4,0,0,0,4.08-.77,1.77,1.77,0,0,0,1,.28,1.81,1.81,0,0,0,1.8-1.81A1.78,1.78,0,0,0,22.51,327.63Z"/><path class="cls-2" d="M22.1,327.39a.65.65,0,0,0,0-.27.85.85,0,0,0-.85-.85.91.91,0,0,0-.23,0,1.6,1.6,0,0,0-1-.79,1.15,1.15,0,0,0,0-.26,1,1,0,0,0-1-1H19a1.64,1.64,0,0,0-3.13.6h0a.87.87,0,0,0-.87.82,1.16,1.16,0,0,0-.42-.08,1.21,1.21,0,0,0-1.17.94,1.65,1.65,0,0,0,.15,3.29,1.66,1.66,0,0,0,.66-.14,1.36,1.36,0,0,0,1.3,1,1.32,1.32,0,0,0,.69-.2,3,3,0,0,0,1.39.34,3.16,3.16,0,0,0,2.33-1,1.61,1.61,0,0,0,.87.25,1.65,1.65,0,0,0,1.64-1.65A1.62,1.62,0,0,0,22.1,327.39Z"/><path class="cls-2" d="M40.49,314.38a2.43,2.43,0,0,0-2.3-3.21,2.38,2.38,0,0,0-.65.1A4.71,4.71,0,0,0,34.61,309a2.76,2.76,0,0,0,.09-.71,2.94,2.94,0,0,0-2.93-2.95h-.24A4.66,4.66,0,0,0,22.6,307h-.13a2.42,2.42,0,0,0-2.41,2.32,3.35,3.35,0,0,0-1.19-.22,3.44,3.44,0,0,0-3.35,2.69,4.71,4.71,0,0,0,.42,9.4,4.51,4.51,0,0,0,1.87-.4,3.9,3.9,0,0,0,3.71,2.73,3.82,3.82,0,0,0,2-.55,8.92,8.92,0,0,0,10.63-2,4.66,4.66,0,0,0,7.17-4A4.72,4.72,0,0,0,40.49,314.38Z"/><path class="cls-2" d="M40,314.35a2.37,2.37,0,0,0-2.22-3.11,2.59,2.59,0,0,0-.63.09,4.52,4.52,0,0,0-2.84-2.19,2.63,2.63,0,0,0,.09-.7,2.84,2.84,0,0,0-2.83-2.85l-.23,0a4.51,4.51,0,0,0-8.63,1.63H22.6a2.34,2.34,0,0,0-2.33,2.24,3.4,3.4,0,0,0-1.15-.21,3.33,3.33,0,0,0-3.24,2.6,4.55,4.55,0,0,0,.41,9.08,4.58,4.58,0,0,0,1.81-.38,3.76,3.76,0,0,0,3.58,2.63,3.65,3.65,0,0,0,1.9-.53,8.66,8.66,0,0,0,10.28-1.93A4.54,4.54,0,0,0,40,314.35Z"/><path class="cls-2" d="M39,313.73a2.09,2.09,0,0,0,.11-.67A2.14,2.14,0,0,0,37,310.91a2.12,2.12,0,0,0-.57.08,4.09,4.09,0,0,0-2.58-2,2.65,2.65,0,0,0,.08-.63,2.59,2.59,0,0,0-2.58-2.6h-.21a4.1,4.1,0,0,0-7.85,1.49h-.11a2.13,2.13,0,0,0-2.12,2,3.05,3.05,0,0,0-1.05-.19A3,3,0,0,0,17,311.48a4.14,4.14,0,1,0,2,7.92,3.41,3.41,0,0,0,3.25,2.39,3.32,3.32,0,0,0,1.74-.48,7.89,7.89,0,0,0,9.36-1.75,4.06,4.06,0,0,0,2.18.63A4.15,4.15,0,0,0,39,313.73Z"/><path class="cls-2" d="M36.33,326.81a.62.62,0,0,0-.56-.78l-.15,0a1.14,1.14,0,0,0-.72-.54.57.57,0,0,0,0-.18.71.71,0,0,0-.72-.71h-.05A1.13,1.13,0,0,0,32,325h0a.59.59,0,0,0-.59.56,1,1,0,0,0-.29,0,.83.83,0,0,0-.81.65,1.14,1.14,0,0,0,.1,2.28,1,1,0,0,0,.45-.1,1,1,0,0,0,.9.66,1,1,0,0,0,.48-.13,2.1,2.1,0,0,0,1,.23,2.2,2.2,0,0,0,1.61-.71,1.08,1.08,0,0,0,.6.17,1.14,1.14,0,0,0,1.13-1.14A1.17,1.17,0,0,0,36.33,326.81Z"/><path class="cls-2" d="M36.21,326.8a.48.48,0,0,0,0-.18.57.57,0,0,0-.57-.57l-.15,0a1.08,1.08,0,0,0-.68-.54.88.88,0,0,0,0-.16.69.69,0,0,0-.69-.7h-.05a1.1,1.1,0,0,0-2.1.4h0a.57.57,0,0,0-.57.55.67.67,0,0,0-.28-.06.82.82,0,0,0-.79.63,1.1,1.1,0,0,0,.11,2.2,1,1,0,0,0,.43-.09.92.92,0,0,0,.87.64.88.88,0,0,0,.46-.13,2.1,2.1,0,0,0,.94.22,2.06,2.06,0,0,0,1.55-.69,1.08,1.08,0,0,0,.59.18,1.11,1.11,0,0,0,.9-1.73Z"/><path class="cls-2" d="M36,326.66a1,1,0,0,0,0-.17.53.53,0,0,0-.53-.52l-.13,0a1,1,0,0,0-.63-.48.78.78,0,0,0,0-.16.62.62,0,0,0-.62-.62h0a1,1,0,0,0-1.91.36h0a.52.52,0,0,0-.51.5.51.51,0,0,0-.25,0,.72.72,0,0,0-.71.57,1,1,0,0,0,.09,2,1,1,0,0,0,.39-.09.83.83,0,0,0,.79.58.74.74,0,0,0,.42-.12,1.93,1.93,0,0,0,2.27-.42,1,1,0,0,0,.53.15,1,1,0,0,0,1-1A1.06,1.06,0,0,0,36,326.66Z"/><path class="cls-2" d="M26.78,331.06A10.32,10.32,0,0,0,25,334.39a22.37,22.37,0,0,0-.32,7.75c.32,1.79.25-1.24,1-.51s.83,2.09,1.49,2A18.13,18.13,0,0,1,26.78,331.06Z"/><path class="cls-2" d="M36.74,344s-.08.47.66.53.81.19.81.19a10.8,10.8,0,0,0-1.23-.07c-.42,0-.55-.13-.9-.11a7.59,7.59,0,0,1-1.4.2,5.2,5.2,0,0,0-1.09-.09c-.31.07-.05-.12.39-.11s.83,0,1-.25S36.74,344,36.74,344Z"/><path class="cls-2" d="M33.38,338.57a3.25,3.25,0,0,0,2.37.91l.14.48a2,2,0,0,0-.75-.34,3.67,3.67,0,0,1-1.86-1Z"/><path class="cls-2" d="M33.61,338.38a1,1,0,0,0,.25.65c.26.25,0,0,0,0l-.16-.06S33.52,338.54,33.61,338.38Z"/><path class="cls-2" d="M36,336.93s-.35.1.27,2.87a16.42,16.42,0,0,1,.41,4.79H34.86a7.92,7.92,0,0,0,.76-3.46c-.11-1.72-1.5-3.37-1.78-4.6l.49,0a10,10,0,0,0,1.12,2.28,8,8,0,0,1-.05-2.27C35.58,335.79,36,336.93,36,336.93Z"/><g class="cls-6"><path class="cls-2" d="M35.84,337.15a9.13,9.13,0,0,0,.25,2.14c.1.57.39,2.14.39,2.14a4.41,4.41,0,0,0-.93-1.93A10.16,10.16,0,0,1,34.09,337l.43,0a7.16,7.16,0,0,0,.93,1.8,10.72,10.72,0,0,1-.12-1.8C35.64,337,35.87,337,35.84,337.15Z"/></g><path class="cls-2" d="M39,339.3a4.16,4.16,0,0,1-2.56,2v.64a2.47,2.47,0,0,1,.8-.69c.46-.24,1.72-1.28,1.88-2Z"/><path class="cls-2" d="M38,338.57a3,3,0,0,1-.18,2.1c-.53,1-.05,0,0,0s.4-.32.4-.32S38.36,339,38,338.57Z"/><path class="cls-2" d="M36.84,338.59a.41.41,0,0,1,0-.11.35.35,0,0,1,.34-.35l.09,0a.65.65,0,0,1,.42-.32.45.45,0,0,1,0-.11.42.42,0,0,1,.42-.42h0a.65.65,0,0,1,.6-.39.67.67,0,0,1,.67.63h0a.35.35,0,0,1,.35.33.41.41,0,0,1,.16,0,.48.48,0,0,1,.48.38.67.67,0,0,1-.06,1.34.66.66,0,0,1-.27-.06.55.55,0,0,1-.52.39.54.54,0,0,1-.28-.08,1.37,1.37,0,0,1-.57.14,1.29,1.29,0,0,1-.94-.42.69.69,0,0,1-.36.1.67.67,0,0,1-.66-.67A.73.73,0,0,1,36.84,338.59Z"/><path class="cls-2" d="M36.91,338.58a.34.34,0,0,1,0-.1.33.33,0,0,1,.33-.34h.09a.58.58,0,0,1,.4-.3.41.41,0,0,1,0-.11.4.4,0,0,1,.4-.4h0a.64.64,0,0,1,1.23.23h0a.34.34,0,0,1,.33.32.41.41,0,0,1,.16,0,.48.48,0,0,1,.46.37.65.65,0,0,1-.06,1.29.75.75,0,0,1-.26,0,.52.52,0,0,1-.5.37.5.5,0,0,1-.27-.08,1.17,1.17,0,0,1-.55.13,1.21,1.21,0,0,1-.91-.4.71.71,0,0,1-.35.1.65.65,0,0,1-.64-.65A.64.64,0,0,1,36.91,338.58Z"/><path class="cls-2" d="M37.06,338.49a.29.29,0,0,1,0-.09.31.31,0,0,1,.31-.31l.08,0a.51.51,0,0,1,.36-.28s0-.07,0-.1a.37.37,0,0,1,.36-.37h0a.61.61,0,0,1,.54-.35.59.59,0,0,1,.58.57h0a.31.31,0,0,1,.31.29.33.33,0,0,1,.15,0,.44.44,0,0,1,.42.33.59.59,0,1,1-.29,1.13.49.49,0,0,1-.46.34.43.43,0,0,1-.25-.07,1.06,1.06,0,0,1-.5.12,1.11,1.11,0,0,1-.83-.37.52.52,0,0,1-.31.09.58.58,0,0,1-.58-.58A.65.65,0,0,1,37.06,338.49Z"/><path class="cls-2" d="M30.5,333.86a1.26,1.26,0,0,1,0-.28.87.87,0,0,1,.86-.87.8.8,0,0,1,.23,0,1.7,1.7,0,0,1,1.05-.8,1.15,1.15,0,0,1,0-.26,1,1,0,0,1,1-1.05h.09a1.66,1.66,0,0,1,3.18.6h0a.87.87,0,0,1,.86.83,1.2,1.2,0,0,1,.42-.07,1.22,1.22,0,0,1,1.2.95,1.68,1.68,0,0,1-.15,3.36,1.64,1.64,0,0,1-.67-.15,1.38,1.38,0,0,1-2,.78,3.14,3.14,0,0,1-1.43.34,3.23,3.23,0,0,1-2.37-1,1.65,1.65,0,0,1-.88.26,1.68,1.68,0,0,1-1.67-1.68A1.65,1.65,0,0,1,30.5,333.86Z"/><path class="cls-2" d="M30.68,333.84a.75.75,0,0,1,0-.26.83.83,0,0,1,.82-.84.8.8,0,0,1,.23,0,1.62,1.62,0,0,1,1-.78,1.07,1.07,0,0,1,0-.25,1,1,0,0,1,1-1h.08a1.61,1.61,0,0,1,3.08.59h0a.84.84,0,0,1,.83.8,1.16,1.16,0,0,1,.42-.07,1.18,1.18,0,0,1,1.15.92,1.62,1.62,0,0,1-.15,3.24,1.5,1.5,0,0,1-.64-.14,1.35,1.35,0,0,1-1.28.94,1.31,1.31,0,0,1-.68-.19,3,3,0,0,1-1.37.33,3.07,3.07,0,0,1-2.29-1,1.58,1.58,0,0,1-.86.25,1.62,1.62,0,0,1-1.33-2.53Z"/><path class="cls-2" d="M31,333.63a1,1,0,0,1,0-.25.76.76,0,0,1,.76-.76.64.64,0,0,1,.2,0,1.49,1.49,0,0,1,.92-.71.9.9,0,0,1,0-.23.92.92,0,0,1,.92-.92h.07a1.46,1.46,0,0,1,2.79.53h0a.76.76,0,0,1,.77.73,1.17,1.17,0,0,1,.38-.07,1.07,1.07,0,0,1,1,.84,1.48,1.48,0,0,1-.13,2.95,1.41,1.41,0,0,1-.58-.13,1.22,1.22,0,0,1-1.16.86,1.18,1.18,0,0,1-.62-.17,2.87,2.87,0,0,1-1.25.29A2.77,2.77,0,0,1,33,335.7a1.51,1.51,0,0,1-.78.23,1.47,1.47,0,0,1-1.47-1.48A1.42,1.42,0,0,1,31,333.63Z"/><path class="cls-2" d="M32,338.29a.15.15,0,0,1,0-.07.21.21,0,0,1,.21-.21h.05a.38.38,0,0,1,.26-.19.2.2,0,0,1,0-.07.26.26,0,0,1,.25-.26h0a.4.4,0,0,1,.37-.24.4.4,0,0,1,.4.38h0a.2.2,0,0,1,.21.2h.11a.3.3,0,0,1,.29.23.41.41,0,0,1,0,.81.76.76,0,0,1-.16,0,.35.35,0,0,1-.32.23.34.34,0,0,1-.17-.05.72.72,0,0,1-.35.08.76.76,0,0,1-.57-.25.42.42,0,0,1-.21.06.4.4,0,0,1-.41-.4A.35.35,0,0,1,32,338.29Z"/><path class="cls-2" d="M32,338.29a.25.25,0,0,1,0-.07.21.21,0,0,1,.21-.2h.06a.36.36,0,0,1,.24-.18.15.15,0,0,1,0-.06.25.25,0,0,1,.25-.25h0a.38.38,0,0,1,.35-.24.4.4,0,0,1,.39.38h0a.22.22,0,0,1,.21.2.15.15,0,0,1,.09,0,.29.29,0,0,1,.29.22.39.39,0,0,1,.35.39.4.4,0,0,1-.39.4.76.76,0,0,1-.16,0,.32.32,0,0,1-.31.22.3.3,0,0,1-.16-.05.77.77,0,0,1-.34.08.76.76,0,0,1-.55-.24.37.37,0,0,1-.21.06.4.4,0,0,1-.39-.39A.38.38,0,0,1,32,338.29Z"/><path class="cls-2" d="M32.12,338.23a.11.11,0,0,1,0-.06.18.18,0,0,1,.18-.18h.05a.34.34,0,0,1,.22-.17v-.06a.22.22,0,0,1,.22-.23h0a.36.36,0,0,1,.32-.22.35.35,0,0,1,.35.34h0a.19.19,0,0,1,.18.18l.09,0A.25.25,0,0,1,34,338a.35.35,0,0,1,.33.35.36.36,0,0,1-.36.36.35.35,0,0,1-.14,0,.3.3,0,0,1-.28.21.47.47,0,0,1-.16,0,.65.65,0,0,1-.29.07.7.7,0,0,1-.51-.23.31.31,0,0,1-.19.06.36.36,0,0,1-.35-.36A.36.36,0,0,1,32.12,338.23Z"/><path class="cls-2" d="M35.4,339.8A3.71,3.71,0,0,1,36,341a7.83,7.83,0,0,1,.12,2.76c-.12.64-.09-.44-.36-.18s-.3.74-.53.72A6.53,6.53,0,0,0,35.4,339.8Z"/><path class="cls-3" d="M530.3,452.9c-5.45-9.7-6.63-22.15-6.63-22.15V406.62H491.29v24.13s-1.18,12.45-6.61,22.15-8.76,17.18-8.76,37.09v4.22h63.13V490C539.05,470.08,535.75,462.6,530.3,452.9Z"/><path class="cls-3" d="M483.21,451c-3.67-6.61-4.49-15-4.49-15V419.68H456.83V436s-.81,8.4-4.49,15-5.9,11.6-5.9,25.07v2.85h42.67v-2.85C489.11,462.6,486.91,457.54,483.21,451Z"/><path class="cls-3" d="M562.62,451c-3.65-6.61-4.46-15-4.46-15V419.68H536.27V436s-.82,8.4-4.48,15-5.91,11.6-5.91,25.07v2.85h42.64v-2.85C568.52,462.6,566.29,457.54,562.62,451Z"/><rect class="cls-3" x="396.04" y="475.91" width="192.4" height="21.54"/><rect class="cls-3" x="433.98" y="470.34" width="147.04" height="11.42"/><path class="cls-3" d="M560.63,386.3a5.26,5.26,0,0,0-5.25-5.26c-.24,0-.52,0-.74,0a5.38,5.38,0,0,0-1.82-2.55,5.24,5.24,0,0,0,.18-1.25,5.67,5.67,0,0,0-5.64-5.67,5.6,5.6,0,0,0-4.87,2.88,2.58,2.58,0,0,0-.5,0,5.26,5.26,0,0,0-5.23,5.27,1.4,1.4,0,0,0,0,.43A5.19,5.19,0,0,0,533,382a5.13,5.13,0,0,0-3-1,5.26,5.26,0,0,0-2,10.13c.18,1.33,1.52,8.64,11.09,8.91,0,0-3.76,5.74,4,8.45,0,0,5.27,1.4,5.46,8.86h2.2s2.27-6.65-1.54-10.36,5.82-4.22,4-8.66c0,0,5.69-2.7,5-7.69A5.28,5.28,0,0,0,560.63,386.3Z"/><path class="cls-3" d="M521.63,371.66a5.21,5.21,0,0,0-5.23-5.25h-.74a4.82,4.82,0,0,0-1.79-2.5,6.65,6.65,0,0,0,.12-1.31,5.57,5.57,0,0,0-10.46-2.75,3,3,0,0,0-.5-.06,5.26,5.26,0,0,0-5.24,5.3,1.13,1.13,0,0,0,0,.41,5.29,5.29,0,0,0-3.8,1.83,5.09,5.09,0,0,0-3-.93,5.26,5.26,0,0,0-1.95,10.13c.15,1.29,1.49,8.61,11.07,8.9,0,0-3.74,5.73,4,8.46,0,0,5.27,1.37,5.47,8.85h2.19s2.32-6.66-1.51-10.39,5.82-4.22,4-8.65c0,0,5.72-2.67,5-7.68A5.21,5.21,0,0,0,521.63,371.66Z"/><rect class="cls-3" x="592" y="393" width="42" height="98"/><rect class="cls-3" x="699" y="444" width="42" height="47"/><rect class="cls-3" x="640" y="354" width="53" height="137"/><polygon class="cls-4" points="144.1 643.09 132.13 643.09 135.56 545.51 140.69 545.51 144.1 643.09"/><polygon class="cls-4" points="141.13 548.02 134.44 548.02 136.17 498.33 139.36 498.33 141.13 548.02"/><polygon class="cls-4" points="133.13 548.78 135.88 542.68 180.43 564.8 179.12 567.72 133.13 548.78"/><polygon class="cls-4" points="140.34 543.24 142.67 549.5 95.53 565.36 94.41 562.37 140.34 543.24"/><polygon class="cls-4" points="170.1 643.09 162.87 643.09 164.93 584.23 168.04 584.23 170.1 643.09"/><polygon class="cls-4" points="168.3 585.77 164.26 585.77 165.32 555.79 167.24 555.79 168.3 585.77"/><polygon class="cls-4" points="163.47 586.22 165.15 582.53 192.01 595.88 191.2 597.63 163.47 586.22"/><polygon class="cls-4" points="167.83 582.88 169.23 586.63 140.82 596.22 140.12 594.43 167.83 582.88"/><polygon class="cls-4" points="210.34 643.09 202.84 643.09 204.99 581.91 208.21 581.91 210.34 643.09"/><polygon class="cls-4" points="208.48 583.48 204.29 583.48 205.38 552.33 207.37 552.33 208.48 583.48"/><polygon class="cls-4" points="203.46 583.96 205.19 580.14 233.12 594 232.3 595.84 203.46 583.96"/><polygon class="cls-4" points="207.99 580.49 209.45 584.41 179.89 594.36 179.19 592.48 207.99 580.49"/><polygon class="cls-4" points="226.64 643.09 222.11 643.09 223.4 606.19 225.35 606.19 226.64 643.09"/><polygon class="cls-4" points="225.52 607.15 222.99 607.15 223.65 588.35 224.85 588.35 225.52 607.15"/><polygon class="cls-4" points="222.49 607.43 223.54 605.12 240.38 613.49 239.88 614.59 222.49 607.43"/><polygon class="cls-4" points="225.22 605.34 226.1 607.69 208.29 613.7 207.85 612.58 225.22 605.34"/><polygon class="cls-4" points="96.16 643.09 91.09 643.09 92.54 601.68 94.72 601.68 96.16 643.09"/><polygon class="cls-4" points="94.9 602.75 92.06 602.75 92.8 581.67 94.15 581.67 94.9 602.75"/><polygon class="cls-4" points="91.51 603.07 92.67 600.49 111.58 609.87 111.02 611.11 91.51 603.07"/><polygon class="cls-4" points="94.57 600.72 95.56 603.38 75.55 610.11 75.08 608.84 94.57 600.72"/><polygon class="cls-4" points="107.19 643.09 104.13 643.09 105 618.11 106.32 618.11 107.19 643.09"/><polygon class="cls-4" points="106.43 618.77 104.72 618.77 105.17 606.04 105.98 606.04 106.43 618.77"/><polygon class="cls-4" points="104.39 618.96 105.1 617.39 116.5 623.06 116.15 623.8 104.39 618.96"/><polygon class="cls-4" points="106.23 617.54 106.83 619.13 94.77 623.2 94.47 622.44 106.23 617.54"/><polygon class="cls-4" points="266.02 643.09 253.94 643.09 257.4 544.61 262.58 544.61 266.02 643.09"/><polygon class="cls-4" points="263.02 547.14 256.27 547.14 258.02 497 261.23 497 263.02 547.14"/><polygon class="cls-4" points="254.94 547.91 257.72 541.76 302.68 564.08 301.36 567.03 254.94 547.91"/><polygon class="cls-4" points="262.22 542.32 264.58 548.64 217 564.64 215.87 561.63 262.22 542.32"/><polygon class="cls-4" points="292.25 643.09 284.96 643.09 287.04 583.69 290.18 583.69 292.25 643.09"/><polygon class="cls-4" points="290.44 585.24 286.37 585.24 287.44 554.98 289.37 554.98 290.44 585.24"/><polygon class="cls-4" points="285.57 585.69 287.26 581.98 314.37 595.44 313.55 597.22 285.57 585.69"/><polygon class="cls-4" points="289.97 582.33 291.38 586.12 262.7 595.79 262 593.98 289.97 582.33"/><line class="cls-7" x1="692.97" y1="95.87" x2="693.15" y2="96.13"/><line class="cls-7" x1="702.29" y1="88.23" x2="702.16" y2="88.03"/><rect class="cls-8" x="414.28" y="28.9" width="352.97" height="121.12"/><path class="cls-5" d="M49.72,374.37V378H42.34v6.41h2.73c3.53,0,6.41,1.15,6.41,7.85,0,6.26-2.81,7.7-6.33,7.7H36.36V374.37Zm-7.38,22h.93c2.09,0,2.24-1,2.24-4s-.15-4.18-2.24-4.18h-.93Z"/><path class="cls-5" d="M58.47,379.41l1.9,14.22h.08l1.9-14.22h4.79l-4.61,21.71c-.46,2.26-2.12,3.49-4.6,3.49H53.35v-3.75h3c.75,0,1-.18,1-.57a4.72,4.72,0,0,0-.14-.9l-4.46-20Z"/><path class="cls-5" d="M81.65,379.41v16.85h1v8.35h-5V400H72.4v4.61h-5v-8.35h1c1-2,1.11-5.08,1.11-8.57v-8.28Zm-7.49,3.74v6a19.34,19.34,0,0,1-1,7.13h3.1V383.15Z"/><path class="cls-5" d="M89.25,379.41l1.9,14.22h.08l1.9-14.22h4.79l-4.61,21.71c-.46,2.26-2.12,3.49-4.6,3.49H84.13v-3.75h3c.75,0,1-.18,1-.57a4.72,4.72,0,0,0-.14-.9l-4.46-20Z"/><path class="cls-5" d="M104.73,396.26H107V379.41h5.47v16.85h2.27V379.41h5.47v16.85h1v8.35h-5V400h-17V379.41h5.48Z"/><path class="cls-5" d="M128,390.35v4.18c0,1.22.43,2,1.19,2s1.19-.76,1.19-2v-2.66H136v3c0,3.89-2.88,5.36-6.87,5.36-3.64,0-6.88-1.65-6.88-5.47V385c0-3.7,2.45-5.79,6.88-5.79,3.63,0,6.87,1.37,6.87,5.79v5.4Zm2.38-3.42v-2.8a1.19,1.19,0,1,0-2.38,0v2.8Z"/><path class="cls-5" d="M143.32,390.35v4.18c0,1.22.43,2,1.18,2,.9,0,1.19-.76,1.19-2v-2.66h5.69v3c0,3.89-2.88,5.36-6.88,5.36-3.63,0-6.87-1.65-6.87-5.47V385c0-3.7,2.45-5.79,6.87-5.79,3.64,0,6.88,1.37,6.88,5.79v5.4Zm2.37-3.42v-2.8a1.19,1.19,0,1,0-2.37,0v2.8Z"/><path class="cls-5" d="M161.32,386.25V385c0-4.42,3.24-5.79,6.87-5.79,4.43,0,6.88,2,6.88,5.22,0,2.52-1.26,4-3.1,4.39v.29c2.09.68,3.1,1.73,3.1,4.86,0,4.82-2.77,6.33-6.88,6.33s-6.87-1.47-6.87-5.36v-3H167v2.66c0,1.22.29,2,1.19,2s1.19-.76,1.19-2v-1.19c0-2.19-.5-2.55-2-2.55v-3.42c1.73,0,2-.44,2-1.52v-1.72a1.19,1.19,0,1,0-2.38,0v2.12Z"/><path class="cls-5" d="M176.65,386.68v-1.91c0-4.14,3.46-5.61,6.88-5.61s6.87,1.47,6.87,5.61V400h-5.68v-2.41h-.08a4,4,0,0,1-4,2.66c-2.48,0-4-1.51-4-4.21V393c0-5.4,8.07-4.75,8.07-8.57,0-.82-.26-1.51-1.19-1.51s-1.19.69-1.19,1.51v2.27Zm5.69,5.8v2.23a1,1,0,0,0,1,1.08c1.19,0,1.34-.79,1.34-2.63V389.6C183.6,390.39,182.34,390.86,182.34,392.48Z"/><path class="cls-5" d="M200.45,379.41c3.53,0,5.29,1.73,5.29,5,0,2.52-1.26,4-3.1,4.39v.29c2.06.75,3.1,1.73,3.1,5.25,0,3.82-2.2,5.69-5.36,5.69H192V379.41Zm-2.77,8h.64c1.37,0,1.73-.33,1.73-2.16s-.36-2.06-1.73-2.06h-.64Zm0,8.89h.54c1.54,0,1.83-.44,1.83-2.74s-.29-2.73-1.73-2.73h-.64Z"/><path class="cls-5" d="M212.65,379.41v10.48h0l3.13-10.48h5.69V400h-5.33V388.63h0L213,400h-5.66V379.41Z"/><path class="cls-5" d="M231.16,386.68v-2.34c0-.75-.29-1.44-1.19-1.44s-1.19.69-1.19,1.44v10.73c0,.75.29,1.44,1.19,1.44s1.19-.69,1.19-1.44v-3.2h5.68v3c0,3.89-2.88,5.36-6.91,5.36-4.25,0-6.84-1.76-6.84-5.72v-9.61c0-3.39,2.52-5.76,6.84-5.76,3.67,0,6.91,1.37,6.91,5.79v1.73Z"/><path class="cls-5" d="M243.76,379.41v10.48h0l3.13-10.48h5.69V400h-5.33V388.63h0L244.08,400h-5.65V379.41Z"/><path class="cls-5" d="M267,379.41v3.74h-3.81V400h-5.69V383.15h-3.81v-3.74Z"/><path class="cls-5" d="M268.67,400V394h5.58V400Z"/><path class="cls-5" d="M277,400V394h5.58V400Z"/><path class="cls-5" d="M285.37,400V394H291V400Z"/><path class="cls-5" d="M490.47,532.1v9.82c0,3.82-3.24,5.48-6.88,5.48s-6.87-1.66-6.87-5.48V532.1c0-3.71,2.44-5.8,6.87-5.8S490.47,528.39,490.47,532.1Zm-8.07-.61v10.72c0,.76.29,1.44,1.19,1.44s1.19-.68,1.19-1.44V531.49c0-.76-.29-1.44-1.19-1.44S482.4,530.73,482.4,531.49Z"/><path class="cls-5" d="M504.83,526.55v3.75H501v16.84h-5.69V530.3h-3.82v-3.75Z"/><path class="cls-5" d="M520.27,531h3.17v-9.5h6v25.62h-6V534.91h-3.17v12.23h-6V521.52h6Z"/><path class="cls-5" d="M543.17,521.52l3.31,25.62h-5.94l-.68-6.3h-3.24l-1,6.3h-5L535,521.52ZM539.43,537l-1-11.41h-.07l-1,11.41Z"/><path class="cls-5" d="M553.68,543.26h3.17V521.52h6v21.74H566V521.52h6v25.62H547.71V521.52h6Z"/><path class="cls-5" d="M585.94,521.52v3.88h-6.41V531h6.19v3.89h-6.19v8.35h6.41v3.88H573.55V521.52Z"/><path class="cls-5" d="M599.4,521.52v3.88h-6.48v21.74h-6V521.52Z"/><path class="cls-5" d="M615.53,528.5v11.66c0,5.87-3.6,7.49-7.56,7.49s-7.56-1.62-7.56-7.49V528.5c0-5.87,3.6-7.49,7.56-7.49S615.53,522.63,615.53,528.5Zm-9.15-1.37v14.4c0,1,.33,2,1.59,2s1.58-1,1.58-2v-14.4c0-1-.32-2-1.58-2S606.38,526.09,606.38,527.13Z"/><path class="cls-5" d="M633.92,526.55c3.53,0,5.3,1.73,5.3,5,0,2.52-1.26,4-3.1,4.39v.29c2,.76,3.1,1.73,3.1,5.26,0,3.81-2.2,5.68-5.37,5.68h-8.38V526.55Zm-2.77,8h.65c1.37,0,1.73-.32,1.73-2.16s-.36-2.05-1.73-2.05h-.65Zm0,8.89h.54c1.55,0,1.84-.43,1.84-2.73s-.29-2.74-1.73-2.74h-.65Z"/><path class="cls-5" d="M646.49,526.55v7.64h2.37c3.17,0,5.69,1.22,5.69,6.48s-2.52,6.47-5.69,6.47H640.8V526.55Zm0,16.85H647c1.47,0,1.83-.43,1.83-2.73s-.36-2.74-1.72-2.74h-.65Zm15.58,3.74h-5.68V526.55h5.68Z"/><path class="cls-5" d="M676.48,521.52c-.58,2.34-2,3.42-4.36,4.21-2,.68-4,1.62-4,5h0c.22-1.37,2.12-2.74,3.56-2.74,4.14,0,5.69,2.16,5.69,5.87v8c0,3.82-3.24,5.48-6.87,5.48s-6.88-1.66-6.88-5.48v-8c0-8,2.81-9.69,5.65-10.76,1.59-.62,2.85-.8,3.28-1.62Zm-7.13,11.69v9c0,.76.29,1.44,1.19,1.44s1.18-.68,1.18-1.44v-9c0-.75-.28-1.44-1.18-1.44S669.35,532.46,669.35,533.21Z"/><path class="cls-5" d="M692.75,532.1v9.82c0,3.82-3.24,5.48-6.88,5.48s-6.87-1.66-6.87-5.48V532.1c0-3.71,2.44-5.8,6.87-5.8S692.75,528.39,692.75,532.1Zm-8.07-.61v10.72c0,.76.29,1.44,1.19,1.44s1.19-.68,1.19-1.44V531.49c0-.76-.29-1.44-1.19-1.44S684.68,530.73,684.68,531.49Z"/><path class="cls-5" d="M700,551.75h-5.69v-25.2H700v2.7h.07c.29-2.16,1.84-3,3.93-3,3.13,0,4.06,2.67,4.06,5.26v11.37c0,2.52-1.08,4.47-4,4.47a3.87,3.87,0,0,1-4-3H700Zm0-19.36v8.92c0,.9.5,1.41,1.19,1.41s1.19-.51,1.19-1.41v-8.92c0-.9-.51-1.41-1.19-1.41S700,531.49,700,532.39Z"/><path class="cls-5" d="M709.67,533.83v-1.91c0-4.14,3.45-5.62,6.87-5.62s6.88,1.48,6.88,5.62v15.22h-5.69v-2.41h-.07a4,4,0,0,1-4,2.67c-2.48,0-4-1.52-4-4.22v-3c0-5.4,8.06-4.76,8.06-8.57,0-.83-.25-1.51-1.19-1.51s-1.18.68-1.18,1.51v2.27Zm5.69,5.79v2.23a1,1,0,0,0,1,1.08c1.19,0,1.33-.79,1.33-2.63v-3.56C716.62,537.53,715.36,538,715.36,539.62Z"/><path class="cls-5" d="M44.06,679.13,46,693.35H46L48,679.13h4.79l-4.61,21.71c-.47,2.27-2.12,3.49-4.61,3.49H39v-3.74H41.9c.76,0,1-.18,1-.58a4.72,4.72,0,0,0-.14-.9l-4.47-20Z"/><path class="cls-5" d="M67.79,679.13v9.4h.07l2.91-9.4h5.51L73,688.35l3.57,11.37h-5.8L67.86,689h-.07v10.76H62.1V689H62l-2.92,10.76H53.32l3.56-11.37-3.28-9.22h5.51l2.92,9.4h.07v-9.4Z"/><path class="cls-5" d="M83.12,690.08v4.17c0,1.22.43,2,1.19,2s1.19-.76,1.19-2v-2.66h5.69v3c0,3.89-2.88,5.36-6.88,5.36-3.64,0-6.87-1.65-6.87-5.47v-9.82c0-3.71,2.44-5.8,6.87-5.8,3.64,0,6.88,1.37,6.88,5.8v5.4Zm2.38-3.42v-2.81a1.19,1.19,0,1,0-2.38,0v2.81Z"/><path class="cls-5" d="M110.27,683.24v-3.53c0-1-.33-2-1.62-2s-1.55,1-1.55,2v14.4c0,1,.32,2,1.55,2s1.62-1,1.62-2v-4.36h6v3.38c0,4.79-2.55,7.1-7.59,7.1-4,0-7.53-1.62-7.53-7.49V681.08c0-5.87,3.57-7.49,7.53-7.49,4.35,0,7.59,1.3,7.59,6.84v2.81Z"/><path class="cls-5" d="M130.21,674.09V678H123.8v5.62H130v3.88H123.8v8.35h6.41v3.89H117.83V674.09Z"/><path class="cls-5" d="M143.67,674.09V678h-6.48v21.74h-6V674.09Z"/><path class="cls-5" d="M159.8,681.08v11.66c0,5.87-3.6,7.49-7.56,7.49s-7.56-1.62-7.56-7.49V681.08c0-5.87,3.6-7.49,7.56-7.49S159.8,675.21,159.8,681.08Zm-9.14-1.37v14.4c0,1,.32,2,1.58,2s1.58-1,1.58-2v-14.4c0-1-.32-2-1.58-2S150.66,678.67,150.66,679.71Z"/><path class="cls-5" d="M177.15,674.09v21.74h1.23v8.82H172.8v-4.93h-6.2v4.93H161v-8.82h1.22c1-3.23,1.22-6.11,1.22-11.59V674.09ZM168.51,678v6.59c0,4.75-.25,8.21-1.33,11.26h4V678Z"/><path class="cls-5" d="M185.58,683.6h3.16v-9.51h6v25.63h-6V687.48h-3.16v12.24h-6V674.09h6Z"/><path class="cls-5" d="M211.42,699.72h-6V689.39H205l-2.92,10.33h-6.41l4.14-10.87c-1.69-.79-3.53-2.27-3.53-7.27,0-5.79,2.92-7.49,7.2-7.49h7.92Zm-6-22h-.94c-2.09,0-2.23.75-2.23,3.77s.14,4.18,2.23,4.18h.94Z"/><line class="cls-9" x1="620.2" y1="231.98" x2="620.37" y2="232.23"/><line class="cls-9" x1="628.87" y1="224.45" x2="628.75" y2="224.26"/><path class="cls-10" d="M650.85,112.08,672,90.56a15.26,15.26,0,0,0-21.16,21.52Zm24.39-24.81a20.68,20.68,0,0,1,3.27,3.21l-24.4,24.81a15.26,15.26,0,0,0,24.21-12.37h4.58a19.84,19.84,0,0,1-32.18,15.55,22.05,22.05,0,0,1-3.07-3,19.84,19.84,0,0,1,27.59-28.16Z"/><path class="cls-10" d="M568.69,83.12A19.84,19.84,0,1,1,548.85,103a19.84,19.84,0,0,1,19.84-19.84Zm0,4.25A15.59,15.59,0,1,0,584.28,103,15.59,15.59,0,0,0,568.69,87.37Z"/><path class="cls-10" d="M596.07,74.24h4.21V90.62A19.85,19.85,0,1,1,596,102.89c0-9.54,0-19.1,0-28.65Zm19.8,13.06a15.59,15.59,0,1,0,15.59,15.59A15.59,15.59,0,0,0,615.87,87.3Z"/><path class="cls-10" d="M505.23,74.49a15.59,15.59,0,1,1-11.34,26.29v22h-4.26V90.08h0a15.59,15.59,0,0,1,15.59-15.59Zm0,4.25a11.34,11.34,0,1,0,11.34,11.34A11.34,11.34,0,0,0,505.23,78.74Z"/><path class="cls-10" d="M532.67,98.61h0v24.14h-4.25V98.6h0A15.59,15.59,0,0,1,544,83v4.25A11.34,11.34,0,0,0,532.67,98.61Z"/><path class="cls-11" d="M735.5,56a1.2,1.2,0,0,1,.35.83c.25,2.16-.32,4.14-.52,6.24-.24,1.39-.48,2.8-.63,4.24s.76,2.53,1.52,3.88A3.49,3.49,0,0,1,737,73c0,.32,0,.68,0,1s0,.28,0,.4l-.15.74c0,.2-3.34-.4-4.76-.59-.16.38-.26.78-.39,1.17-.22.15-.42-.21-.56,0s-.21.38-.18.62a1.26,1.26,0,0,1-.64,0,2.47,2.47,0,0,1-.84-.37c-.18.26-.24.58-.44.84h-.08a5.83,5.83,0,0,1,.21-1,1.74,1.74,0,0,1-1.47-.45c.11-.24.3-.58.09-.84a.69.69,0,0,1-.32-.12,12,12,0,0,1,.31-1.18l-.16-.12-4-2L723.5,71c.39-.77.49-1.72,1.34-2.22,1.34-.65,2.64-1.44,4-2.11a2.82,2.82,0,0,0,.89-1c.94-1.63,1.65-3.35,2.52-5a20.93,20.93,0,0,1,2.39-4.24C734.85,56.12,735.12,55.87,735.5,56Z"/><path class="cls-12" d="M735.72,56.85a9.51,9.51,0,0,1-.05,2.61,1.54,1.54,0,0,1-1.14-.67l-.16.08a1.23,1.23,0,0,1-1.11-.19c.29,0,.59.22.88.18a.93.93,0,0,0,.19-.57,3.42,3.42,0,0,0-.78-.19,12.84,12.84,0,0,1,1.14-1.58Z"/><path class="cls-12" d="M735.4,56.08a.22.22,0,0,1,.16.21l-.5-.14A.37.37,0,0,1,735.4,56.08Z"/><polygon class="cls-11" points="735.51 56.87 735.37 57.49 734.62 57.3 734.79 56.66 735.51 56.87"/><path class="cls-12" d="M733.65,58.48a.24.24,0,0,0,0-.22l-.1,0a1.62,1.62,0,0,1,.68.2c0,.08,0,.12-.09.16a.31.31,0,0,0-.27-.08.11.11,0,0,0-.08.16l.09.1-.57-.15c0-.07,0-.15.06-.22C733.37,58.53,733.56,58.55,733.65,58.48Z"/><path class="cls-12" d="M733.61,58.36c0,.06,0,.07-.08.08s-.09-.13,0-.16S733.62,58.29,733.61,58.36Z"/><polygon class="cls-11" points="735.28 57.67 735.21 57.97 734.47 57.76 734.56 57.45 735.28 57.67"/><path class="cls-12" d="M734.05,58.57c.11,0,0,.16,0,.16s-.13-.08-.19-.12S733.9,58.5,734.05,58.57Z"/><path class="cls-12" d="M734.82,60.41c.45.3.61.69.47.92a.07.07,0,0,0,0,.06,14.47,14.47,0,0,0-2.76-.85.8.8,0,0,1,.56-.55A2.58,2.58,0,0,1,734.82,60.41Z"/><polygon class="cls-12" points="732.49 60.65 733.82 61 733.04 63.54 731.75 63.1 732.49 60.65"/><path class="cls-12" d="M731.13,63c.2-.53.48-1.06.73-1.58l-.59,1.6Z"/><path class="cls-11" d="M733.71,60.22a.32.32,0,0,1,.29.06c.07.07,0,.19,0,.26s-.22,0-.33,0A.25.25,0,0,1,733.71,60.22Z"/><path class="cls-11" d="M733.69,60.76c.18.05.16,0,.21,0l0,.12c-.2-.05-.25-.08-.36-.11l0-.16C733.56,60.67,733.53,60.71,733.69,60.76Z"/><path class="cls-12" d="M726.37,68.54c1-.48,1.88-1,2.83-1.51a11.05,11.05,0,0,0,1.44-2.48l-1.41,2.88c-.88.47-1.79.93-2.63,1.43-.14.59-.35,1.16-.53,1.74L724.28,70a1.67,1.67,0,0,1,.62-.73Z"/><polygon class="cls-12" points="723.84 70.42 723.86 70.68 725.79 71.4 725.58 71.92 723.62 70.92 723.84 70.42"/><polygon class="cls-12" points="724.04 70.55 725.87 71.2 725.84 71.31 723.98 70.6 723.94 70.32 724.04 70.55"/><path class="cls-11" d="M734.16,60.36c.08,0,.18,0,.29.06s0,.27-.11.28a.35.35,0,0,1-.26-.08A.26.26,0,0,1,734.16,60.36Z"/><path class="cls-11" d="M734.16,60.88c.12,0,.17,0,.2-.1a.58.58,0,0,1-.05.18l-.35-.1a.37.37,0,0,1,0-.13C734,60.85,734,60.84,734.16,60.88Z"/><polygon class="cls-12" points="735.23 61.51 734.45 63.97 733.16 63.54 733.92 61.02 735.23 61.51"/><polygon class="cls-12" points="731.73 63.21 732.99 63.67 732.23 66.14 730.96 65.76 731.73 63.21"/><path class="cls-12" d="M730,66.08c.21-.43.49-1,.71-1.49l.13.07Z"/><polygon class="cls-12" points="731.11 64.8 730.85 65.69 730.47 65.5 730.93 64.7 731.11 64.8"/><polygon class="cls-12" points="726.73 68.88 729.13 67.57 728.87 68.02 726.6 69.29 726.73 68.88"/><polygon class="cls-12" points="730.81 65.79 730.68 66.23 730.16 66 730.41 65.59 730.81 65.79"/><polygon class="cls-12" points="726.71 69.49 726.43 70.46 726.71 70.54 726.46 70.72 726.19 70.64 726.59 69.39 726.71 69.49"/><path class="cls-12" d="M727.4,69.62c-.06,0-.42-.1-.62-.18l-.06-.1.42-.22Z"/><polygon class="cls-12" points="730.1 66.11 730.64 66.35 730.5 66.78 729.87 66.48 730.1 66.11"/><polygon class="cls-12" points="727.6 68.87 728.11 69.83 728.62 69.58 728.79 69.92 728.34 70.15 728.39 69.95 727.56 69.7 727.22 69.08 727.6 68.87"/><path class="cls-12" d="M730.48,66.86l-.16.47-.75-.35c.12-.2.15-.23.25-.41Z"/><polygon class="cls-12" points="728.12 68.59 728.59 69.5 728.16 69.72 727.68 68.83 728.12 68.59"/><path class="cls-12" d="M734.63,65.53c-.14.08-.37,0-.53,0,.37-1.41.92-2.79,1.31-4.21A29,29,0,0,0,734.63,65.53Z"/><polygon class="cls-12" points="730.28 67.43 730.16 67.8 729.35 67.41 729.52 67.07 730.28 67.43"/><polygon class="cls-12" points="732.19 66.25 731.43 68.75 730.1 68.36 730.92 65.84 732.19 66.25"/><polygon class="cls-12" points="733.14 63.68 734.41 64.09 733.65 66.55 732.38 66.16 733.14 63.68"/><polygon class="cls-12" points="729.11 69.22 728.69 69.46 728.2 68.56 728.64 68.29 729.11 69.22"/><polygon class="cls-12" points="729.29 67.53 730.14 67.91 730 68.33 729.09 67.92 729.29 67.53"/><polygon class="cls-12" points="729.11 68.04 729.6 68.9 729.22 69.11 728.75 68.26 729.11 68.04"/><path class="cls-12" d="M726.79,70.57l.5.15-.23.17s-.39-.12-.53-.14Z"/><polygon class="cls-12" points="726.06 71.28 728.13 72.05 728.08 72.15 726.02 71.37 726.06 71.28"/><polygon class="cls-12" points="725.98 71.48 728.06 72.25 727.8 72.98 725.77 72 725.98 71.48"/><polygon class="cls-12" points="729.58 68.59 729.37 68.17 729.92 68.41 729.58 68.59"/><path class="cls-12" d="M735.05,64.18h-.16c.06-.58.27-1.11.37-1.67C735.28,63,735.06,63.62,735.05,64.18Z"/><polygon class="cls-12" points="727.52 71.04 727.14 70.93 727.38 70.75 727.52 71.04"/><polygon class="cls-12" points="729.14 69.3 729.36 70.22 729.14 70.35 728.74 69.52 729.14 69.3"/><path class="cls-12" d="M729.92,68.53c0,.17-.12.32-.15.5l-.15-.32Z"/><polygon class="cls-12" points="728.04 70.93 728.09 70.88 728.14 70.95 727.64 71.09 727.47 70.77 728.04 70.93"/><path class="cls-12" d="M729.66,69l.05.11s-.23.73-.28,1l-.17-.85Z"/><polygon class="cls-12" points="731.37 68.84 730.71 71.03 729.38 70.64 730.08 68.45 731.37 68.84"/><polygon class="cls-12" points="733.6 66.66 732.8 69.22 731.55 68.79 732.32 66.27 733.6 66.66"/><polygon class="cls-12" points="728.83 70.01 729.05 70.44 728.19 70.92 728.14 70.82 728.28 70.29 728.83 70.01"/><path class="cls-12" d="M728.6,70.81a3.84,3.84,0,0,1,.18.35,1.16,1.16,0,0,0-.21.19l-.65-.19Z"/><path class="cls-12" d="M729.1,70.53l.13.25a1.9,1.9,0,0,0-.38.29l-.17-.3Z"/><path class="cls-12" d="M734.23,65.68l-.1,1-.37-.07.27-.94A.21.21,0,0,1,734.23,65.68Z"/><polygon class="cls-12" points="729.33 70.41 729.27 70.64 729.2 70.5 729.33 70.41"/><path class="cls-12" d="M734.45,65.67c-.05.66-.18,1.31-.28,2l.16-2Z"/><polygon class="cls-12" points="730.63 71.14 730.63 71.19 729.33 70.82 729.33 70.75 730.63 71.14"/><path class="cls-12" d="M729.35,70.94a1.57,1.57,0,0,1,.76.29,6.06,6.06,0,0,1-.56,2.16c.06.12-.09.38-.12.56a7.69,7.69,0,0,0-1.63-.5A3.5,3.5,0,0,1,729.35,70.94Z"/><path class="cls-12" d="M734.36,68.75c.75,1.45,1.5,2.91,2.25,4.35l0,.78c-.58-.14-1.18-.33-1.77-.51.1-.62.38-1.21.48-1.85l-1.31-2.63.49-3.2C734.52,66.73,734.07,67.73,734.36,68.75Z"/><polygon class="cls-12" points="732.76 69.34 732.1 71.48 730.83 71.07 731.47 68.91 732.76 69.34"/><polygon class="cls-12" points="734.14 66.76 734.11 67.23 733.6 67.13 733.75 66.68 734.14 66.76"/><polygon class="cls-12" points="734.07 67.78 733.46 67.67 733.57 67.23 734.1 67.33 734.07 67.78"/><polygon class="cls-12" points="734.07 67.89 734.02 68.39 733.27 68.25 733.42 67.75 734.07 67.89"/><path class="cls-12" d="M730.53,71.29c-.24.69-.55,1.35-.8,2l0,0a5.31,5.31,0,0,0,.51-2.09Z"/><polygon class="cls-12" points="734.02 68.48 733.97 68.89 733.11 68.72 733.23 68.33 734.02 68.48"/><polygon class="cls-12" points="733.04 68.84 733.97 68.99 733.89 69.42 732.92 69.26 733.04 68.84"/><polygon class="cls-12" points="730.79 71.15 732.06 71.6 732.05 71.65 730.77 71.21 730.79 71.15"/><path class="cls-12" d="M731.1,71.47a4.92,4.92,0,0,0-.75,2l.41-2.07A3.09,3.09,0,0,1,731.1,71.47Z"/><polygon class="cls-12" points="732.76 69.89 732.88 69.42 732.94 69.8 732.76 69.89"/><polygon class="cls-12" points="733.63 69.49 733.06 69.74 732.96 69.42 733.63 69.49"/><path class="cls-12" d="M729.31,75.32a28,28,0,0,1,1-3.1C730,73.19,729.65,74.3,729.31,75.32Z"/><path class="cls-12" d="M729.53,75.38l1-3.22A12.23,12.23,0,0,1,729.53,75.38Z"/><path class="cls-12" d="M731.82,71.68a1.5,1.5,0,0,1,.4,1.46,11.39,11.39,0,0,1-.41,1.55,5.46,5.46,0,0,0-1.61-.48c0-.22.06-.5.25-.63a3.92,3.92,0,0,1,.78-2.06Z"/><polygon class="cls-12" points="732.7 70.03 732.96 69.91 733.09 70.37 732.51 70.65 732.7 70.03"/><polygon class="cls-12" points="733.73 69.52 733.89 69.53 733.87 69.68 733.99 69.92 733.22 70.3 733.09 69.84 733.73 69.52"/><path class="cls-12" d="M735.27,71.54l-.08.39L734,69.67l0-.56C734.47,69.91,735.27,71.53,735.27,71.54Z"/><path class="cls-12" d="M732.49,70.83l.65-.34.17.45-.43.21c.08.22.29.63.29.63l-.2.57c-.16-.32-.47-.86-.47-.86l.25-.13,0-.11-.27.13-.09-.18Z"/><polygon class="cls-12" points="729.54 73.95 729.61 73.73 729.56 73.93 729.54 73.95"/><polygon class="cls-12" points="734.05 70.05 734.24 70.45 733.45 70.86 733.26 70.43 734.05 70.05"/><path class="cls-12" d="M732.59,72l-.31.19-.14-.38.14-.42Z"/><polygon class="cls-12" points="733.33 71.05 733.67 71.72 733.34 71.64 733.24 71.67 733.02 71.22 733.33 71.05"/><polygon class="cls-12" points="734.3 70.55 734.52 70.97 733.66 71.42 733.44 71 734.3 70.55"/><path class="cls-12" d="M732.32,72.25a1.8,1.8,0,0,1,.33-.16l.35.71-.57-.16A.9.9,0,0,0,732.32,72.25Z"/><path class="cls-12" d="M729.35,75.56a2.43,2.43,0,0,1-.35.94A3.55,3.55,0,0,1,729.35,75.56Z"/><path class="cls-12" d="M734.8,72.19l-.18.67c-.48-.13-1-.31-1.5-.46l.2-.67C733.85,71.86,734.3,72.05,734.8,72.19Z"/><polygon class="cls-12" points="734.56 71.05 734.75 71.41 734.11 71.74 734.07 71.82 733.83 71.76 733.71 71.49 734.56 71.05"/><polygon class="cls-12" points="733.62 72.7 733.77 73.04 733.16 72.85 733.01 72.49 733.62 72.7"/><path class="cls-12" d="M734.51,73.94l0,.08-2.22-.55v-.09C733,73.53,734.51,73.94,734.51,73.94Z"/><path class="cls-12" d="M734.47,74.1l-.17.56-2.25-.33.17-.75C733,73.69,733.72,73.92,734.47,74.1Z"/><polygon class="cls-12" points="735 71.87 734.83 72.06 734.15 71.84 734.81 71.51 735 71.87"/><polygon class="cls-12" points="734.28 72.86 734.43 73.22 733.96 73.08 733.74 72.72 734.28 72.86"/><polygon class="cls-12" points="734.89 72.2 734.87 72.09 735.05 71.91 735.13 72.07 734.96 72.63 734.78 72.64 734.89 72.2"/><polygon class="cls-12" points="734.67 72.98 734.76 72.7 734.94 72.69 734.75 73.31 734.57 73.27 734.44 72.94 734.67 72.98"/><path class="cls-12" d="M736.48,74.42l.34-.12c0,.09-.11.15-.36.2-.57-.14-1.5-.35-1.76-.39l0-.12C735,74.06,736.1,74.34,736.48,74.42Z"/><path class="cls-12" d="M735.61,74.45l-1-.25-.15.48,2.23.3c0-.19.09-.36.11-.53C736.66,74.71,735.92,74.51,735.61,74.45Z"/><path class="cls-12" d="M735.64,59.54a1.63,1.63,0,0,1-1.12-.62,1.56,1.56,0,0,1-1.31-.16c0,.06-.18.3-.33.63-.85,1.62-1.25,3.45-2.19,5,.15.09.32.17.46.24.47-1.38.82-2.83,1.26-4.22a1.42,1.42,0,0,1,.28-.4c.28-.29,1-.16,1.5,0s1.1.42,1.23,1A3.48,3.48,0,0,0,735.64,59.54Z"/><polygon class="cls-12" points="733.15 59.78 733.11 59.81 733 59.7 733.03 59.66 733.15 59.78"/><rect class="cls-5" x="733.28" y="59.71" width="0.17" height="0.05" transform="translate(76.4 391.08) rotate(-31.42)"/><path class="cls-12" d="M733.37,59.53c0,.14,0,.2-.18.19s-.26-.32-.23-.37.15-.19.28-.16S733.41,59.3,733.37,59.53Z"/><path class="cls-12" d="M733.56,59.53c-.13,0-.21-.36-.17-.39s.2-.16.28-.09.1.1.08.33S733.69,59.58,733.56,59.53Z"/><path class="cls-12" d="M733.89,59.51c-.09-.1,0-.38.05-.41a.22.22,0,0,1,.29,0c0,.05.06.16-.06.36S734,59.61,733.89,59.51Z"/><path class="cls-12" d="M734.46,59.67c-.07-.12.1-.42.15-.42s.27.06.25.18,0,.08-.17.27S734.53,59.79,734.46,59.67Z"/><path class="cls-12" d="M734.77,59.87c0-.13.18-.4.23-.4a.31.31,0,0,1,.26.21c0,.08,0,.16-.23.29S734.82,60,734.77,59.87Z"/><path class="cls-12" d="M735.58,60.1c0,.08-.08.14-.31.16s-.19-.08-.17-.22.31-.27.35-.24A.27.27,0,0,1,735.58,60.1Z"/><path class="cls-12" d="M727.84,75.19l1.26.39S728.69,75.8,727.84,75.19Z"/><path class="cls-12" d="M729.51,75.73l1.27.39S730.36,76.34,729.51,75.73Z"/><polygon class="cls-12" points="726.79 69.58 726.56 70.39 727.99 70.84 728.22 70 726.79 69.58"/><polygon class="cls-12" points="726.85 69.65 727.3 69.77 727.19 70.14 726.75 70.02 726.85 69.65"/><polygon class="cls-12" points="727.96 70.78 726.65 70.36 726.65 70.33 727.96 70.75 727.96 70.78"/><polygon class="cls-12" points="727.98 70.71 726.67 70.3 726.67 70.27 727.99 70.68 727.98 70.71"/><polygon class="cls-12" points="728 70.64 726.69 70.23 726.69 70.2 728 70.61 728 70.64"/><polygon class="cls-12" points="728.02 70.57 726.71 70.16 726.71 70.13 728.02 70.54 728.02 70.57"/><polygon class="cls-12" points="728.04 70.5 726.74 70.09 726.74 70.06 728.04 70.47 728.04 70.5"/><polygon class="cls-12" points="728.05 70.42 727.24 70.15 727.24 70.13 728.06 70.4 728.05 70.42"/><polygon class="cls-12" points="728.08 70.36 727.25 70.08 727.26 70.06 728.08 70.34 728.08 70.36"/><polygon class="cls-12" points="728.09 70.29 727.28 70.02 727.28 69.99 728.1 70.27 728.09 70.29"/><polygon class="cls-12" points="728.11 70.22 727.3 69.94 727.3 69.92 728.12 70.2 728.11 70.22"/><polygon class="cls-12" points="728.14 70.16 727.31 69.88 727.32 69.85 728.14 70.13 728.14 70.16"/><polygon class="cls-12" points="727.33 69.81 727.34 69.78 728.16 70.06 728.15 70.08 727.33 69.81"/><path class="cls-12" d="M734.72,57.72a.07.07,0,1,0-.1,0A.07.07,0,0,0,734.72,57.72Z"/><path class="cls-12" d="M734.91,57.78s0-.08,0-.1a.08.08,0,0,0-.11,0,.07.07,0,1,0,.1.1Z"/><path class="cls-12" d="M735.13,57.82a.07.07,0,0,0-.1-.1.09.09,0,0,0,0,.11A.08.08,0,0,0,735.13,57.82Z"/><path class="cls-12" d="M734.9,57.05c0,.08-.07.14-.1.13s0-.08,0-.16.07-.13.1-.12S734.93,57,734.9,57.05Z"/><path class="cls-12" d="M735.11,57.1c0,.08-.07.13-.1.13s0-.08,0-.16.08-.13.1-.13S735.14,57,735.11,57.1Z"/><path class="cls-12" d="M735.31,57.15c0,.08-.08.14-.1.13s0-.08,0-.16.07-.13.1-.12S735.33,57.07,735.31,57.15Z"/><path class="cls-12" d="M734.83,56.75s.55.13.6.16l0,.17s0-.25-.2-.07c0,0-.05-.22-.19,0,0,0,0-.21-.2-.07Z"/><path class="cls-12" d="M734.69,57.26l.62.15.05-.19s-.15.22-.24,0c0,0-.13.19-.2,0,0,0-.17.12-.18-.09Z"/><path class="cls-13" d="M693.6,114.61a20.84,20.84,0,0,0,0-2.85c7.11-4.22,21-14.41,26.38-23,.5-.8,1-.56.47.29C713.61,100.71,696.35,113.23,693.6,114.61ZM723.83,85.9c.46-.87,0-1.15-.44-.32-6.42,11.65-16.26,21.74-29.79,30.51a26.13,26.13,0,0,1,0,2.8C707.84,109.36,716.49,99.87,723.83,85.9Zm1.87,1c.41-.9,0-1.17-.44-.33-5.8,11.74-14,26.28-26.83,36.18.43,0,3.78-.06,4.1,0C712.87,111.59,719.37,100.78,725.7,86.91Zm-.76,4.61c.36-.91-.05-1.09-.45-.24-4.7,10.07-12.07,22.93-20.33,31.46.43,0,3.47,0,3.92,0C714.83,113.91,721.2,101,724.94,91.52Zm3.57-13.23c.38-.9-.07-1.09-.44-.22-6.53,15.52-17.45,31.82-34.47,42.54a15.42,15.42,0,0,1,0,2.15,23.42,23.42,0,0,1,2.37,0C711.62,111.51,721.28,95.5,728.51,78.29Z"/><path class="cls-14" d="M710.49,98.14c-1.06,1-4.42,3.66-4.42,3.66l-6.2-9.26-6.33-9.45H707.8l3.47,5.58,3.35,5.41S711.56,97.17,710.49,98.14Zm5.45,14.45,2.22,4.79,2.51,5.37,7.76,0,7.76,0-7.38-10.94-7.2-10.62s-2.48,5.38-3.21,6.83S715.94,112.59,715.94,112.59Z"/></g></svg>