<svg id="_1" data-name="1" xmlns="http://www.w3.org/2000/svg" viewBox="0 0 381.96 77.28"><defs><style>.cls-1{fill:#ed786a;}.cls-1,.cls-3,.cls-4,.cls-6{fill-rule:evenodd;}.cls-2{fill:#e3000f;}.cls-3{fill:#1a1a18;}.cls-4,.cls-5{fill:#fff;}.cls-6{fill:#1754a2;}.cls-7{fill:none;}</style></defs><title>probex</title><path class="cls-1" d="M317.12,223.58l21.16-21.52a15.26,15.26,0,0,0-21.16,21.52Zm24.4-24.81a20.61,20.61,0,0,1,3.26,3.21l-24.39,24.81a15.26,15.26,0,0,0,24.21-12.37h4.58A19.84,19.84,0,0,1,317,230a21,21,0,0,1-3.07-3,19.84,19.84,0,0,1,27.59-28.16Z" transform="translate(-85.41 -162.78)"/><path class="cls-1" d="M235,194.62a19.84,19.84,0,1,1-19.84,19.84A19.85,19.85,0,0,1,235,194.62Zm0,4.25a15.59,15.59,0,1,0,15.6,15.59A15.59,15.59,0,0,0,235,198.87Z" transform="translate(-85.41 -162.78)"/><path class="cls-1" d="M262.35,185.74h4.21v16.38a19.85,19.85,0,1,1-4.25,12.27c0-9.54,0-19.1,0-28.65Zm19.8,13.06a15.59,15.59,0,1,0,15.59,15.59A15.59,15.59,0,0,0,282.15,198.8Z" transform="translate(-85.41 -162.78)"/><path class="cls-1" d="M171.5,186a15.59,15.59,0,1,1-11.34,26.29v22h-4.25v-32.7h0A15.59,15.59,0,0,1,171.5,186Zm0,4.25a11.34,11.34,0,1,0,11.34,11.34A11.34,11.34,0,0,0,171.5,190.24Z" transform="translate(-85.41 -162.78)"/><path class="cls-1" d="M199,210.11h0v24.14h-4.26V210.1h0a15.59,15.59,0,0,1,15.59-15.58v4.25A11.34,11.34,0,0,0,199,210.11Z" transform="translate(-85.41 -162.78)"/><line class="cls-2" x1="287.06" y1="50.71" x2="287.23" y2="50.96"/><line class="cls-2" x1="295.73" y1="43.18" x2="295.61" y2="42.98"/><path class="cls-3" d="M401.78,167.5a1.24,1.24,0,0,1,.34.83c.25,2.16-.31,4.14-.52,6.24-.24,1.39-.47,2.8-.62,4.24s.76,2.53,1.51,3.88a3.52,3.52,0,0,1,.8,1.79c0,.32,0,.68,0,1s0,.28,0,.4l-.15.74c0,.2-3.33-.4-4.75-.59-.17.38-.26.78-.4,1.17-.21.15-.41-.21-.55,0s-.22.38-.19.62a1.25,1.25,0,0,1-.64,0,2.51,2.51,0,0,1-.83-.37c-.19.26-.24.58-.45.84h-.07a5.79,5.79,0,0,1,.2-1,1.71,1.71,0,0,1-1.46-.45c.11-.24.29-.58.08-.84a.65.65,0,0,1-.31-.12c0-.42.23-.77.3-1.18l-.16-.12-4-2-.06-.06c.38-.77.49-1.72,1.34-2.22,1.34-.65,2.63-1.44,4-2.11a2.71,2.71,0,0,0,.88-1c.95-1.63,1.65-3.35,2.53-5a20,20,0,0,1,2.39-4.24C401.13,167.62,401.39,167.37,401.78,167.5Z" transform="translate(-85.41 -162.78)"/><path class="cls-4" d="M402,168.35a9.51,9.51,0,0,1,0,2.61,1.5,1.5,0,0,1-1.14-.67l-.16.08a1.22,1.22,0,0,1-1.11-.19c.29,0,.58.22.88.18a1.08,1.08,0,0,0,.19-.57,3.55,3.55,0,0,0-.78-.19A13.89,13.89,0,0,1,401,168Z" transform="translate(-85.41 -162.78)"/><path class="cls-4" d="M401.67,167.58a.23.23,0,0,1,.17.21l-.5-.14A.35.35,0,0,1,401.67,167.58Z" transform="translate(-85.41 -162.78)"/><polygon class="cls-3" points="316.37 5.59 316.23 6.21 315.48 6.02 315.65 5.39 316.37 5.59"/><path class="cls-4" d="M399.92,170a.22.22,0,0,0,0-.22l-.1,0a1.54,1.54,0,0,1,.67.2c0,.08,0,.12-.08.16a.33.33,0,0,0-.28-.08.11.11,0,0,0-.08.16l.1.1-.58-.15c0-.07,0-.15.07-.22C399.65,170,399.84,170.05,399.92,170Z" transform="translate(-85.41 -162.78)"/><path class="cls-4" d="M399.89,169.86c0,.06,0,.07-.08.08s-.09-.13,0-.16S399.9,169.79,399.89,169.86Z" transform="translate(-85.41 -162.78)"/><polygon class="cls-3" points="316.14 6.39 316.07 6.69 315.33 6.48 315.42 6.18 316.14 6.39"/><path class="cls-4" d="M400.32,170.07c.11.05,0,.16,0,.16s-.13-.08-.2-.12S400.18,170,400.32,170.07Z" transform="translate(-85.41 -162.78)"/><path class="cls-4" d="M401.1,171.91c.45.3.61.69.47.92,0,0,0,0,0,.06a14.69,14.69,0,0,0-2.76-.85.8.8,0,0,1,.56-.55A2.6,2.6,0,0,1,401.1,171.91Z" transform="translate(-85.41 -162.78)"/><polygon class="cls-4" points="313.35 9.37 314.68 9.72 313.9 12.26 312.61 11.83 313.35 9.37"/><path class="cls-4" d="M397.41,174.54c.2-.53.48-1.06.73-1.58l-.6,1.6Z" transform="translate(-85.41 -162.78)"/><path class="cls-3" d="M400,171.72a.33.33,0,0,1,.29.06c.06.07,0,.19,0,.26s-.22,0-.32,0A.24.24,0,0,1,400,171.72Z" transform="translate(-85.41 -162.78)"/><path class="cls-3" d="M400,172.26c.18.05.16,0,.21,0l0,.12-.37-.11.06-.16C399.83,172.17,399.81,172.21,400,172.26Z" transform="translate(-85.41 -162.78)"/><path class="cls-4" d="M392.65,180c1-.48,1.88-1,2.82-1.51a10.68,10.68,0,0,0,1.44-2.48c-.47,1-.93,1.92-1.41,2.88-.87.47-1.78.93-2.62,1.43-.14.59-.35,1.16-.53,1.74l-1.79-.57a1.61,1.61,0,0,1,.62-.73Z" transform="translate(-85.41 -162.78)"/><polygon class="cls-4" points="304.7 19.14 304.72 19.41 306.65 20.12 306.44 20.64 304.48 19.64 304.7 19.14"/><polygon class="cls-4" points="304.9 19.27 306.73 19.92 306.7 20.03 304.84 19.33 304.8 19.05 304.9 19.27"/><path class="cls-3" d="M400.43,171.86c.09-.05.19,0,.3.06s0,.27-.11.28a.37.37,0,0,1-.27-.08A.32.32,0,0,1,400.43,171.86Z" transform="translate(-85.41 -162.78)"/><path class="cls-3" d="M400.43,172.38c.13,0,.17,0,.21-.1a1.18,1.18,0,0,1-.05.18l-.35-.1a.21.21,0,0,1,0-.13C400.27,172.35,400.32,172.34,400.43,172.38Z" transform="translate(-85.41 -162.78)"/><polygon class="cls-4" points="316.09 10.23 315.31 12.69 314.02 12.27 314.78 9.74 316.09 10.23"/><polygon class="cls-4" points="312.59 11.93 313.85 12.4 313.09 14.87 311.82 14.48 312.59 11.93"/><path class="cls-4" d="M396.28,177.58c.2-.43.48-1,.71-1.49l.12.07Z" transform="translate(-85.41 -162.78)"/><polygon class="cls-4" points="311.97 13.52 311.71 14.41 311.33 14.23 311.79 13.43 311.97 13.52"/><polygon class="cls-4" points="307.59 17.6 309.99 16.29 309.73 16.74 307.46 18.02 307.59 17.6"/><polygon class="cls-4" points="311.68 14.51 311.54 14.96 311.02 14.73 311.27 14.32 311.68 14.51"/><polygon class="cls-4" points="307.57 18.21 307.29 19.19 307.57 19.26 307.32 19.44 307.05 19.37 307.45 18.11 307.57 18.21"/><path class="cls-4" d="M393.67,181.12c-.05,0-.41-.1-.62-.18l-.05-.1.42-.22Z" transform="translate(-85.41 -162.78)"/><polygon class="cls-4" points="310.96 14.83 311.5 15.07 311.36 15.51 310.73 15.2 310.96 14.83"/><polygon class="cls-4" points="308.46 17.59 308.97 18.55 309.48 18.3 309.65 18.64 309.2 18.87 309.25 18.68 308.42 18.43 308.08 17.8 308.46 17.59"/><path class="cls-4" d="M396.75,178.36l-.16.47-.74-.35.25-.41Z" transform="translate(-85.41 -162.78)"/><polygon class="cls-4" points="308.99 17.32 309.45 18.22 309.02 18.45 308.55 17.55 308.99 17.32"/><path class="cls-4" d="M400.91,177a.84.84,0,0,1-.54,0c.38-1.41.93-2.79,1.32-4.21A26.55,26.55,0,0,0,400.91,177Z" transform="translate(-85.41 -162.78)"/><polygon class="cls-4" points="311.14 16.15 311.02 16.52 310.21 16.13 310.38 15.79 311.14 16.15"/><polygon class="cls-4" points="313.05 14.97 312.29 17.47 310.96 17.08 311.79 14.57 313.05 14.97"/><polygon class="cls-4" points="314 12.4 315.27 12.82 314.51 15.27 313.24 14.89 314 12.4"/><polygon class="cls-4" points="309.97 17.95 309.55 18.18 309.06 17.28 309.5 17.01 309.97 17.95"/><polygon class="cls-4" points="310.15 16.25 311 16.63 310.86 17.05 309.95 16.65 310.15 16.25"/><polygon class="cls-4" points="309.98 16.76 310.46 17.62 310.08 17.84 309.61 16.98 309.98 16.76"/><path class="cls-4" d="M393.06,182.07l.5.15-.23.17s-.39-.12-.52-.14Z" transform="translate(-85.41 -162.78)"/><polygon class="cls-4" points="306.92 20.01 308.99 20.77 308.94 20.88 306.88 20.09 306.92 20.01"/><polygon class="cls-4" points="306.84 20.21 308.92 20.97 308.66 21.7 306.64 20.72 306.84 20.21"/><polygon class="cls-4" points="310.44 17.31 310.23 16.89 310.78 17.14 310.44 17.31"/><path class="cls-4" d="M401.32,175.68h-.16c.07-.58.28-1.11.38-1.67C401.56,174.52,401.34,175.12,401.32,175.68Z" transform="translate(-85.41 -162.78)"/><polygon class="cls-4" points="308.38 19.76 308 19.66 308.24 19.48 308.38 19.76"/><polygon class="cls-4" points="310 18.02 310.22 18.95 310 19.07 309.6 18.24 310 18.02"/><path class="cls-4" d="M396.19,180c0,.17-.11.32-.14.5l-.16-.32Z" transform="translate(-85.41 -162.78)"/><polygon class="cls-4" points="308.9 19.66 308.95 19.6 309 19.67 308.5 19.81 308.33 19.49 308.9 19.66"/><path class="cls-4" d="M395.93,180.51l.06.11s-.24.73-.29,1l-.16-.85Z" transform="translate(-85.41 -162.78)"/><polygon class="cls-4" points="312.23 17.57 311.57 19.75 310.24 19.36 310.94 17.17 312.23 17.57"/><polygon class="cls-4" points="314.46 15.38 313.67 17.94 312.41 17.51 313.18 14.99 314.46 15.38"/><polygon class="cls-4" points="309.69 18.73 309.91 19.16 309.06 19.65 309 19.55 309.14 19.01 309.69 18.73"/><path class="cls-4" d="M394.88,182.31a3.78,3.78,0,0,1,.17.35.88.88,0,0,0-.2.19l-.66-.19Z" transform="translate(-85.41 -162.78)"/><path class="cls-4" d="M395.37,182l.13.25a2,2,0,0,0-.37.29l-.17-.3Z" transform="translate(-85.41 -162.78)"/><path class="cls-4" d="M400.51,177.18l-.1,1-.37-.07.27-.94A.21.21,0,0,1,400.51,177.18Z" transform="translate(-85.41 -162.78)"/><polygon class="cls-4" points="310.19 19.13 310.13 19.36 310.06 19.22 310.19 19.13"/><path class="cls-4" d="M400.73,177.17c-.05.66-.18,1.31-.28,2l.16-2Z" transform="translate(-85.41 -162.78)"/><polygon class="cls-4" points="311.49 19.86 311.49 19.91 310.19 19.54 310.19 19.48 311.49 19.86"/><path class="cls-4" d="M395.63,182.44a1.61,1.61,0,0,1,.76.29,6.27,6.27,0,0,1-.56,2.16c.05.12-.09.38-.13.56a7.51,7.51,0,0,0-1.63-.5A3.49,3.49,0,0,1,395.63,182.44Z" transform="translate(-85.41 -162.78)"/><path class="cls-4" d="M400.64,180.25c.74,1.45,1.5,2.91,2.25,4.35l.05.78c-.59-.14-1.18-.33-1.77-.51.1-.62.38-1.21.47-1.85l-1.3-2.63.49-3.2C400.8,178.23,400.34,179.23,400.64,180.25Z" transform="translate(-85.41 -162.78)"/><polygon class="cls-4" points="313.62 18.07 312.96 20.21 311.69 19.79 312.33 17.63 313.62 18.07"/><polygon class="cls-4" points="315 15.48 314.97 15.96 314.46 15.85 314.61 15.4 315 15.48"/><polygon class="cls-4" points="314.93 16.5 314.32 16.39 314.43 15.96 314.96 16.06 314.93 16.5"/><polygon class="cls-4" points="314.93 16.61 314.88 17.12 314.13 16.97 314.28 16.47 314.93 16.61"/><path class="cls-4" d="M396.81,182.79c-.24.69-.55,1.35-.8,2l0,0a5.31,5.31,0,0,0,.51-2.09Z" transform="translate(-85.41 -162.78)"/><polygon class="cls-4" points="314.88 17.21 314.83 17.62 313.97 17.45 314.09 17.05 314.88 17.21"/><polygon class="cls-4" points="313.9 17.56 314.83 17.71 314.75 18.14 313.78 17.98 313.9 17.56"/><polygon class="cls-4" points="311.65 19.88 312.92 20.33 312.91 20.38 311.63 19.93 311.65 19.88"/><path class="cls-4" d="M397.38,183a4.94,4.94,0,0,0-.76,2l.42-2.07C397.13,182.9,397.25,182.92,397.38,183Z" transform="translate(-85.41 -162.78)"/><polygon class="cls-4" points="313.62 18.62 313.74 18.14 313.8 18.52 313.62 18.62"/><polygon class="cls-4" points="314.49 18.22 313.92 18.46 313.82 18.14 314.49 18.22"/><path class="cls-4" d="M395.59,186.82a24.32,24.32,0,0,1,1-3.1C396.26,184.69,395.93,185.8,395.59,186.82Z" transform="translate(-85.41 -162.78)"/><path class="cls-4" d="M395.8,186.88l1-3.22A12.25,12.25,0,0,1,395.8,186.88Z" transform="translate(-85.41 -162.78)"/><path class="cls-4" d="M398.1,183.18a1.52,1.52,0,0,1,.4,1.46,11.39,11.39,0,0,1-.41,1.55,5.43,5.43,0,0,0-1.62-.48c0-.22.06-.5.25-.63a3.92,3.92,0,0,1,.78-2.06Z" transform="translate(-85.41 -162.78)"/><polygon class="cls-4" points="313.56 18.75 313.82 18.63 313.95 19.09 313.37 19.37 313.56 18.75"/><polygon class="cls-4" points="314.59 18.24 314.75 18.25 314.73 18.41 314.85 18.64 314.08 19.02 313.95 18.57 314.59 18.24"/><path class="cls-4" d="M401.55,183l-.09.39-1.19-2.26,0-.56C400.75,181.41,401.55,183,401.55,183Z" transform="translate(-85.41 -162.78)"/><path class="cls-4" d="M398.76,182.33l.65-.34.17.45-.43.21c.09.22.3.63.3.63l-.21.57c-.16-.32-.46-.86-.46-.86l.25-.13-.06-.11-.27.13-.08-.18Z" transform="translate(-85.41 -162.78)"/><polygon class="cls-4" points="310.4 22.67 310.47 22.45 310.42 22.65 310.4 22.67"/><polygon class="cls-4" points="314.91 18.77 315.11 19.17 314.31 19.59 314.12 19.16 314.91 18.77"/><path class="cls-4" d="M398.87,183.45l-.32.19-.14-.38.15-.42Z" transform="translate(-85.41 -162.78)"/><polygon class="cls-4" points="314.19 19.78 314.53 20.44 314.2 20.36 314.1 20.4 313.88 19.94 314.19 19.78"/><polygon class="cls-4" points="315.17 19.27 315.38 19.69 314.52 20.14 314.3 19.72 315.17 19.27"/><path class="cls-4" d="M398.6,183.75a1.81,1.81,0,0,1,.32-.16l.35.71-.56-.16A1.1,1.1,0,0,0,398.6,183.75Z" transform="translate(-85.41 -162.78)"/><path class="cls-4" d="M395.62,187.06a2.42,2.42,0,0,1-.34.94A3.91,3.91,0,0,1,395.62,187.06Z" transform="translate(-85.41 -162.78)"/><path class="cls-4" d="M401.08,183.69l-.19.67c-.48-.13-1-.31-1.5-.46l.2-.67C400.12,183.36,400.57,183.55,401.08,183.69Z" transform="translate(-85.41 -162.78)"/><polygon class="cls-4" points="315.42 19.77 315.61 20.13 314.97 20.47 314.93 20.54 314.69 20.48 314.57 20.21 315.42 19.77"/><polygon class="cls-4" points="314.48 21.43 314.63 21.76 314.02 21.58 313.87 21.21 314.48 21.43"/><path class="cls-4" d="M400.78,185.44l0,.08-2.23-.55v-.09C399.3,185,400.78,185.44,400.78,185.44Z" transform="translate(-85.41 -162.78)"/><path class="cls-4" d="M400.74,185.6l-.16.56-2.25-.33.16-.75C399.25,185.19,400,185.42,400.74,185.6Z" transform="translate(-85.41 -162.78)"/><polygon class="cls-4" points="315.87 20.59 315.69 20.78 315.01 20.57 315.68 20.23 315.87 20.59"/><polygon class="cls-4" points="315.14 21.59 315.3 21.95 314.82 21.81 314.6 21.44 315.14 21.59"/><polygon class="cls-4" points="315.75 20.93 315.73 20.81 315.92 20.64 315.99 20.79 315.82 21.35 315.64 21.36 315.75 20.93"/><polygon class="cls-4" points="315.53 21.7 315.62 21.43 315.8 21.41 315.61 22.03 315.43 21.99 315.3 21.66 315.53 21.7"/><path class="cls-4" d="M402.75,185.92l.35-.12c0,.09-.11.15-.37.2-.56-.14-1.49-.35-1.76-.39l0-.12C401.31,185.56,402.37,185.84,402.75,185.92Z" transform="translate(-85.41 -162.78)"/><path class="cls-4" d="M401.89,186l-1-.25-.15.48,2.23.3c0-.19.08-.36.1-.53C402.94,186.21,402.2,186,401.89,186Z" transform="translate(-85.41 -162.78)"/><path class="cls-4" d="M401.91,171a1.66,1.66,0,0,1-1.12-.62,1.57,1.57,0,0,1-1.31-.16c0,.06-.17.3-.33.63-.85,1.62-1.24,3.45-2.18,5a5.06,5.06,0,0,0,.46.24c.46-1.38.82-2.83,1.26-4.22a1.18,1.18,0,0,1,.28-.4c.27-.29,1-.16,1.49,0s1.11.42,1.23,1A3.18,3.18,0,0,0,401.91,171Z" transform="translate(-85.41 -162.78)"/><polygon class="cls-4" points="314.01 8.5 313.97 8.54 313.86 8.42 313.89 8.38 314.01 8.5"/><rect class="cls-5" x="399.55" y="171.21" width="0.17" height="0.05" transform="translate(-116.08 70.68) rotate(-31.42)"/><path class="cls-4" d="M399.64,171c0,.14,0,.2-.17.19s-.26-.32-.23-.37.14-.19.28-.16S399.69,170.8,399.64,171Z" transform="translate(-85.41 -162.78)"/><path class="cls-4" d="M399.83,171c-.13,0-.2-.36-.16-.39s.2-.16.28-.09.1.1.08.33S400,171.08,399.83,171Z" transform="translate(-85.41 -162.78)"/><path class="cls-4" d="M400.17,171c-.1-.1,0-.38.05-.41a.22.22,0,0,1,.29.05c.05,0,.06.16-.07.36S400.26,171.11,400.17,171Z" transform="translate(-85.41 -162.78)"/><path class="cls-4" d="M400.73,171.17c-.06-.12.11-.42.16-.42s.27.06.24.18,0,.08-.16.27S400.8,171.29,400.73,171.17Z" transform="translate(-85.41 -162.78)"/><path class="cls-4" d="M401.05,171.37c-.05-.13.17-.4.22-.4a.31.31,0,0,1,.27.21c0,.08,0,.16-.24.29S401.09,171.5,401.05,171.37Z" transform="translate(-85.41 -162.78)"/><path class="cls-4" d="M401.85,171.6c0,.08-.07.14-.31.16s-.19-.08-.17-.22.31-.27.35-.24A.26.26,0,0,1,401.85,171.6Z" transform="translate(-85.41 -162.78)"/><path class="cls-4" d="M394.11,186.69l1.27.39S395,187.3,394.11,186.69Z" transform="translate(-85.41 -162.78)"/><path class="cls-4" d="M395.79,187.23l1.26.39S396.64,187.84,395.79,187.23Z" transform="translate(-85.41 -162.78)"/><polygon class="cls-4" points="307.65 18.3 307.42 19.11 308.85 19.56 309.08 18.73 307.65 18.3"/><polygon class="cls-4" points="307.71 18.37 308.16 18.49 308.05 18.87 307.61 18.74 307.71 18.37"/><polygon class="cls-4" points="308.82 19.5 307.51 19.08 307.51 19.06 308.82 19.48 308.82 19.5"/><polygon class="cls-4" points="308.84 19.43 307.53 19.02 307.54 18.99 308.85 19.41 308.84 19.43"/><polygon class="cls-4" points="308.86 19.36 307.55 18.95 307.55 18.93 308.86 19.33 308.86 19.36"/><polygon class="cls-4" points="308.88 19.29 307.57 18.88 307.57 18.85 308.88 19.27 308.88 19.29"/><polygon class="cls-4" points="308.9 19.22 307.6 18.81 307.6 18.79 308.9 19.2 308.9 19.22"/><polygon class="cls-4" points="308.92 19.15 308.1 18.88 308.1 18.85 308.92 19.12 308.92 19.15"/><polygon class="cls-4" points="308.94 19.09 308.12 18.8 308.12 18.78 308.94 19.06 308.94 19.09"/><polygon class="cls-4" points="308.95 19.02 308.14 18.74 308.14 18.71 308.96 18.99 308.95 19.02"/><polygon class="cls-4" points="308.97 18.95 308.16 18.67 308.16 18.64 308.98 18.92 308.97 18.95"/><polygon class="cls-4" points="309 18.88 308.17 18.6 308.18 18.57 309 18.85 309 18.88"/><polygon class="cls-4" points="308.19 18.53 308.2 18.5 309.02 18.78 309.01 18.81 308.19 18.53"/><path class="cls-4" d="M401,169.22a.08.08,0,0,0,0-.11.07.07,0,0,0-.1,0,.09.09,0,0,0,0,.11A.08.08,0,0,0,401,169.22Z" transform="translate(-85.41 -162.78)"/><path class="cls-4" d="M401.19,169.28a.07.07,0,0,0-.1-.1.08.08,0,0,0,0,.1A.08.08,0,0,0,401.19,169.28Z" transform="translate(-85.41 -162.78)"/><path class="cls-4" d="M401.41,169.32a.07.07,0,0,0,0-.1.08.08,0,0,0-.11.11S401.37,169.35,401.41,169.32Z" transform="translate(-85.41 -162.78)"/><path class="cls-4" d="M401.18,168.55c0,.08-.07.14-.1.13s0-.08,0-.16.07-.13.1-.12S401.21,168.47,401.18,168.55Z" transform="translate(-85.41 -162.78)"/><path class="cls-4" d="M401.39,168.6c0,.08-.07.13-.1.13s0-.08,0-.16.07-.13.1-.13S401.42,168.52,401.39,168.6Z" transform="translate(-85.41 -162.78)"/><path class="cls-4" d="M401.58,168.65c0,.08-.07.14-.1.13s0-.08,0-.16.07-.13.09-.12S401.61,168.57,401.58,168.65Z" transform="translate(-85.41 -162.78)"/><path class="cls-4" d="M401.11,168.25s.54.13.6.16l0,.17s0-.25-.19-.07c0,0-.05-.22-.19,0,0,0,0-.21-.21-.07Z" transform="translate(-85.41 -162.78)"/><path class="cls-4" d="M401,168.76l.63.15,0-.19s-.15.22-.24,0c0,0-.12.19-.19,0,0,0-.17.12-.19-.09Z" transform="translate(-85.41 -162.78)"/><path class="cls-6" d="M359.88,226.11a24.62,24.62,0,0,0,0-2.85c7.11-4.22,21-14.41,26.37-23,.5-.8,1-.56.47.29C379.89,212.21,362.62,224.73,359.88,226.11Zm30.23-28.71c.46-.87,0-1.15-.44-.32-6.43,11.65-16.26,21.74-29.79,30.51a26.23,26.23,0,0,1,0,2.8C374.12,220.86,382.77,211.37,390.11,197.4Zm1.87,1c.41-.9,0-1.17-.44-.33-5.8,11.74-14,26.28-26.84,36.18.44,0,3.79-.06,4.11,0C379.14,223.09,385.64,212.28,392,198.41Zm-.77,4.61c.36-.91,0-1.09-.44-.24-4.7,10.07-12.08,22.93-20.34,31.46.43,0,3.47-.05,3.92,0C381.1,225.41,387.47,212.53,391.21,203Zm3.57-13.23c.38-.9-.06-1.09-.43-.22-6.53,15.52-17.46,31.82-34.47,42.54a15.42,15.42,0,0,1,0,2.15,23.42,23.42,0,0,1,2.37,0C377.89,223,387.56,207,394.78,189.79Z" transform="translate(-85.41 -162.78)"/><path class="cls-1" d="M376.76,209.64c-1.06,1-4.41,3.66-4.41,3.66l-6.2-9.26-6.33-9.45h14.25l3.48,5.58,3.34,5.41S377.84,208.67,376.76,209.64Zm5.45,14.45,2.22,4.79,2.52,5.37,7.76,0,7.75,0-7.38-10.94-7.2-10.62s-2.47,5.38-3.21,6.83S382.21,224.09,382.21,224.09Z" transform="translate(-85.41 -162.78)"/><rect class="cls-7" width="381.96" height="77.28"/></svg>